<?xml version="1.0" encoding="UTF-8"?>
<svg version="1.1" xmlns="http://www.w3.org/2000/svg" width="256" height="256">
<path d="M0 0 C58.08 0 116.16 0 176 0 C176 1.32 176 2.64 176 4 C177.175625 4.3403125 177.175625 4.3403125 178.375 4.6875 C181 6 181 6 182.3125 8.625 C182.539375 9.40875 182.76625 10.1925 183 11 C184.32 11 185.64 11 187 11 C187 69.08 187 127.16 187 187 C185.68 187 184.36 187 183 187 C182.6596875 188.175625 182.6596875 188.175625 182.3125 189.375 C181 192 181 192 178.375 193.3125 C177.59125 193.539375 176.8075 193.76625 176 194 C176 195.32 176 196.64 176 198 C117.92 198 59.84 198 0 198 C0 196.68 0 195.36 0 194 C-1.175625 193.6596875 -1.175625 193.6596875 -2.375 193.3125 C-5 192 -5 192 -6.3125 189.375 C-6.6528125 188.199375 -6.6528125 188.199375 -7 187 C-8.32 187 -9.64 187 -11 187 C-11 128.92 -11 70.84 -11 11 C-9.68 11 -8.36 11 -7 11 C-6.773125 10.21625 -6.54625 9.4325 -6.3125 8.625 C-5 6 -5 6 -2.375 4.6875 C-1.59125 4.460625 -0.8075 4.23375 0 4 C0 2.68 0 1.36 0 0 Z " fill="#0C00FF" transform="translate(40,29)"/>
<path d="M0 0 C0.80060349 0.00007553 1.60120697 0.00015106 2.42607117 0.00022888 C3.71527214 0.00797081 3.71527214 0.00797081 5.03051758 0.01586914 C5.91411453 0.01728409 6.79771149 0.01869904 7.70808411 0.02015686 C10.53044011 0.0257547 13.3527168 0.03830678 16.17504883 0.05102539 C18.08845914 0.05604067 20.0018707 0.06060353 21.9152832 0.06469727 C26.60606897 0.07572342 31.29679545 0.09298656 35.98754883 0.11352539 C35.98754883 0.77352539 35.98754883 1.43352539 35.98754883 2.11352539 C36.97754883 2.19602539 37.96754883 2.27852539 38.98754883 2.36352539 C48.12620341 3.7581795 54.11742521 9.24704133 59.98754883 16.11352539 C61.86254883 19.23852539 61.86254883 19.23852539 62.98754883 22.11352539 C63.52379883 23.12415039 64.06004883 24.13477539 64.61254883 25.17602539 C66.55997554 29.63013982 66.39914415 34.3313665 66.48364258 39.12524414 C66.78710882 42.1564964 66.78710882 42.1564964 68.54614258 44.46899414 C71.82006307 46.67430698 74.78996951 46.7092336 78.61254883 46.73852539 C85.74768396 46.87366053 85.74768396 46.87366053 87.98754883 49.11352539 C88.24824524 50.99079895 88.24824524 50.99079895 88.26220703 53.30029297 C88.27173904 54.16491653 88.28127106 55.0295401 88.29109192 55.92036438 C88.29018051 56.85680283 88.2892691 57.79324127 88.28833008 58.75805664 C88.2926152 59.71999435 88.29690033 60.68193207 88.30131531 61.67301941 C88.30706602 63.71152967 88.30755344 65.75006045 88.30322266 67.78857422 C88.30007201 70.90310942 88.32348031 74.01668651 88.34887695 77.13110352 C88.35115084 79.11092003 88.35185303 81.09073909 88.35083008 83.07055664 C88.36003983 84.00092239 88.36924957 84.93128815 88.3787384 85.8898468 C88.3435388 90.82937297 88.12852672 94.06438445 84.98754883 98.11352539 C84.25402954 99.38185139 83.52428195 100.65237404 82.80004883 101.92602539 C82.20192383 102.97790039 81.60379883 104.02977539 80.98754883 105.11352539 C80.32754883 105.11352539 79.66754883 105.11352539 78.98754883 105.11352539 C78.78129883 105.67040039 78.57504883 106.22727539 78.36254883 106.80102539 C75.18645761 112.14263336 70.80138618 114.51757004 64.98754883 116.11352539 C64.09087494 116.47250916 64.09087494 116.47250916 63.17608643 116.83874512 C56.36391897 119.49157492 49.90524717 119.58106256 42.65942383 119.58227539 C41.39342346 119.58988892 40.1274231 119.59750244 38.82305908 119.60534668 C36.15344582 119.61611506 33.48472212 119.62039478 30.81518555 119.61450195 C27.43184319 119.6086251 24.04994544 119.63914453 20.66688156 119.67961884 C17.39359314 119.71203892 14.12034756 119.70737923 10.84692383 119.70727539 C9.65170105 119.72367065 8.45647827 119.74006592 7.22503662 119.75695801 C-1.08213697 119.68980878 -8.75657361 118.38892534 -16.01245117 114.11352539 C-17.77105713 111.55090332 -17.77105713 111.55090332 -19.01245117 109.11352539 C-20.66763166 107.327816 -20.66763166 107.327816 -22.44995117 105.73852539 C-30.03589031 98.31262717 -32.03403254 90.0644767 -32.28710938 79.66333008 C-32.30690086 77.2040844 -32.31502516 74.74472505 -32.31323242 72.28540039 C-32.31751755 70.97823059 -32.32180267 69.67106079 -32.32621765 68.32427979 C-32.33363124 65.5742992 -32.33342199 62.82444716 -32.328125 60.07446289 C-32.32230341 56.55842522 -32.33934877 53.04290974 -32.36246967 49.52695847 C-32.38075877 46.15475047 -32.37702225 42.78265769 -32.37573242 39.41040039 C-32.38494217 38.15201355 -32.39415192 36.89362671 -32.40364075 35.59710693 C-32.39741196 34.4252887 -32.39118317 33.25347046 -32.38476562 32.04614258 C-32.38570976 30.5046756 -32.38570976 30.5046756 -32.38667297 28.93206787 C-31.95259277 25.66268731 -30.85802224 23.81660557 -29.01245117 21.11352539 C-28.56256836 20.27692383 -28.11268555 19.44032227 -27.64916992 18.57836914 C-25.71003146 15.6580914 -23.57100906 13.84885822 -20.82495117 11.67602539 C-19.85170898 10.90387695 -18.8784668 10.13172852 -17.87573242 9.33618164 C-16.93084961 8.60270508 -15.9859668 7.86922852 -15.01245117 7.11352539 C-14.22225586 6.49348633 -13.43206055 5.87344727 -12.61791992 5.23461914 C-8.41816604 2.0010424 -5.46014859 -0.01722444 0 0 Z " fill="#FEFEFF" transform="translate(100.012451171875,68.886474609375)"/>
<path d="M0 0 C0.80060349 0.00007553 1.60120697 0.00015106 2.42607117 0.00022888 C3.71527214 0.00797081 3.71527214 0.00797081 5.03051758 0.01586914 C5.91411453 0.01728409 6.79771149 0.01869904 7.70808411 0.02015686 C10.53044011 0.0257547 13.3527168 0.03830678 16.17504883 0.05102539 C18.08845914 0.05604067 20.0018707 0.06060353 21.9152832 0.06469727 C26.60606897 0.07572342 31.29679545 0.09298656 35.98754883 0.11352539 C35.98754883 0.77352539 35.98754883 1.43352539 35.98754883 2.11352539 C36.97754883 2.19602539 37.96754883 2.27852539 38.98754883 2.36352539 C48.12620341 3.7581795 54.11742521 9.24704133 59.98754883 16.11352539 C61.86254883 19.23852539 61.86254883 19.23852539 62.98754883 22.11352539 C63.52379883 23.12415039 64.06004883 24.13477539 64.61254883 25.17602539 C66.55997554 29.63013982 66.39914415 34.3313665 66.48364258 39.12524414 C66.78710882 42.1564964 66.78710882 42.1564964 68.54614258 44.46899414 C71.82006307 46.67430698 74.78996951 46.7092336 78.61254883 46.73852539 C85.74768396 46.87366053 85.74768396 46.87366053 87.98754883 49.11352539 C88.24824524 50.99079895 88.24824524 50.99079895 88.26220703 53.30029297 C88.27173904 54.16491653 88.28127106 55.0295401 88.29109192 55.92036438 C88.29018051 56.85680283 88.2892691 57.79324127 88.28833008 58.75805664 C88.2926152 59.71999435 88.29690033 60.68193207 88.30131531 61.67301941 C88.30706602 63.71152967 88.30755344 65.75006045 88.30322266 67.78857422 C88.30007201 70.90310942 88.32348031 74.01668651 88.34887695 77.13110352 C88.35115084 79.11092003 88.35185303 81.09073909 88.35083008 83.07055664 C88.36003983 84.00092239 88.36924957 84.93128815 88.3787384 85.8898468 C88.3435388 90.82937297 88.12852672 94.06438445 84.98754883 98.11352539 C84.25402954 99.38185139 83.52428195 100.65237404 82.80004883 101.92602539 C82.20192383 102.97790039 81.60379883 104.02977539 80.98754883 105.11352539 C80.32754883 105.11352539 79.66754883 105.11352539 78.98754883 105.11352539 C78.78129883 105.67040039 78.57504883 106.22727539 78.36254883 106.80102539 C75.18645761 112.14263336 70.80138618 114.51757004 64.98754883 116.11352539 C64.09087494 116.47250916 64.09087494 116.47250916 63.17608643 116.83874512 C56.36391897 119.49157492 49.90524717 119.58106256 42.65942383 119.58227539 C41.39342346 119.58988892 40.1274231 119.59750244 38.82305908 119.60534668 C36.15344582 119.61611506 33.48472212 119.62039478 30.81518555 119.61450195 C27.43184319 119.6086251 24.04994544 119.63914453 20.66688156 119.67961884 C17.39359314 119.71203892 14.12034756 119.70737923 10.84692383 119.70727539 C9.65170105 119.72367065 8.45647827 119.74006592 7.22503662 119.75695801 C-1.08213697 119.68980878 -8.75657361 118.38892534 -16.01245117 114.11352539 C-17.77105713 111.55090332 -17.77105713 111.55090332 -19.01245117 109.11352539 C-20.66763166 107.327816 -20.66763166 107.327816 -22.44995117 105.73852539 C-30.03589031 98.31262717 -32.03403254 90.0644767 -32.28710938 79.66333008 C-32.30690086 77.2040844 -32.31502516 74.74472505 -32.31323242 72.28540039 C-32.31751755 70.97823059 -32.32180267 69.67106079 -32.32621765 68.32427979 C-32.33363124 65.5742992 -32.33342199 62.82444716 -32.328125 60.07446289 C-32.32230341 56.55842522 -32.33934877 53.04290974 -32.36246967 49.52695847 C-32.38075877 46.15475047 -32.37702225 42.78265769 -32.37573242 39.41040039 C-32.38494217 38.15201355 -32.39415192 36.89362671 -32.40364075 35.59710693 C-32.39741196 34.4252887 -32.39118317 33.25347046 -32.38476562 32.04614258 C-32.38570976 30.5046756 -32.38570976 30.5046756 -32.38667297 28.93206787 C-31.95259277 25.66268731 -30.85802224 23.81660557 -29.01245117 21.11352539 C-28.56256836 20.27692383 -28.11268555 19.44032227 -27.64916992 18.57836914 C-25.71003146 15.6580914 -23.57100906 13.84885822 -20.82495117 11.67602539 C-19.85170898 10.90387695 -18.8784668 10.13172852 -17.87573242 9.33618164 C-16.93084961 8.60270508 -15.9859668 7.86922852 -15.01245117 7.11352539 C-14.22225586 6.49348633 -13.43206055 5.87344727 -12.61791992 5.23461914 C-8.41816604 2.0010424 -5.46014859 -0.01722444 0 0 Z M-12.01245117 8.11352539 C-12.3037793 8.72969727 -12.59510742 9.34586914 -12.89526367 9.98071289 C-14.24525887 12.55797645 -15.85062233 13.94001705 -18.07495117 15.80102539 C-18.78780273 16.40301758 -19.5006543 17.00500977 -20.23510742 17.62524414 C-20.82163086 18.11637695 -21.4081543 18.60750977 -22.01245117 19.11352539 C-23.91668583 21.01776005 -23.43842607 24.39825653 -23.63354492 26.98461914 C-24.01245117 29.11352539 -24.01245117 29.11352539 -26.01245117 31.11352539 C-26.01245117 32.10352539 -26.01245117 33.09352539 -26.01245117 34.11352539 C-26.67245117 34.11352539 -27.33245117 34.11352539 -28.01245117 34.11352539 C-28.1379738 40.31666041 -28.22767838 46.51902363 -28.28710938 52.72314453 C-28.31193688 54.82451282 -28.34581092 56.92579779 -28.38964844 59.02685547 C-28.67813517 73.2305846 -27.44453803 85.58141985 -23.01245117 99.11352539 C-22.35245117 99.11352539 -21.69245117 99.11352539 -21.01245117 99.11352539 C-20.80620117 99.89727539 -20.59995117 100.68102539 -20.38745117 101.48852539 C-19.20568505 104.42268825 -19.20568505 104.42268825 -15.88745117 105.42602539 C-14.93870117 105.65290039 -13.98995117 105.87977539 -13.01245117 106.11352539 C-13.01245117 107.10352539 -13.01245117 108.09352539 -13.01245117 109.11352539 C-12.44397461 109.2952832 -11.87549805 109.47704102 -11.28979492 109.66430664 C-10.51764648 109.91567383 -9.74549805 110.16704102 -8.94995117 110.42602539 C-8.19584961 110.6696582 -7.44174805 110.91329102 -6.66479492 111.16430664 C-4.01245117 112.11352539 -4.01245117 112.11352539 -1.00073242 113.64794922 C3.73701554 115.67870979 8.36624984 115.5446482 13.45239258 115.51196289 C14.44453262 115.51483307 15.43667267 115.51770325 16.45887756 115.5206604 C18.54908827 115.52269433 20.6393183 115.51721163 22.72949219 115.50463867 C25.91165179 115.48859294 29.09253807 115.50450187 32.2746582 115.52368164 C34.31307244 115.52169876 36.35148589 115.51785415 38.38989258 115.51196289 C39.33283676 115.51803558 40.27578094 115.52410828 41.24729919 115.53036499 C47.20055849 115.46765657 51.52190307 114.47739191 56.98754883 112.11352539 C60.35228506 111.1273096 63.71915151 110.18330869 67.11254883 109.30102539 C70.62085379 107.85194291 72.54374389 105.98859002 74.98754883 103.11352539 C74.98754883 102.45352539 74.98754883 101.79352539 74.98754883 101.11352539 C75.62563477 100.88922852 76.2637207 100.66493164 76.92114258 100.43383789 C79.20733621 99.28565505 79.20733621 99.28565505 79.71020508 96.79321289 C79.87842773 95.40489258 79.87842773 95.40489258 80.05004883 93.98852539 C80.49589569 90.45180757 81.12249577 87.7930264 82.51879883 84.47680664 C84.57551236 79.20901862 84.46439701 74.01704471 84.42504883 68.42602539 C84.4450293 67.40702148 84.46500977 66.38801758 84.4855957 65.33813477 C84.48508809 59.35348028 84.48508809 59.35348028 82.08520508 53.96899414 C77.99906395 50.3546235 74.01286363 50.7904362 68.73754883 50.49243164 C65.98754883 50.11352539 65.98754883 50.11352539 63.98754883 48.11352539 C63.72691498 44.40880141 63.62112661 40.74164251 63.59692383 37.02954102 C63.42437122 31.2250631 62.14792592 27.97940579 58.98754883 23.11352539 C58.67817383 22.10290039 58.36879883 21.09227539 58.05004883 20.05102539 C56.70052753 16.31999592 54.65113524 14.0307867 51.98754883 11.11352539 C51.43067383 10.39165039 50.87379883 9.66977539 50.30004883 8.92602539 C47.19620152 6.49328021 44.02072076 5.78064591 40.22973633 4.82446289 C37.98754883 4.11352539 37.98754883 4.11352539 35.98754883 2.11352539 C33.34418391 1.9012789 30.80836038 1.8095519 28.16333008 1.81274414 C27.38370407 1.80845901 26.60407806 1.80417389 25.80082703 1.79975891 C24.14733857 1.79400914 22.49382481 1.79352011 20.84033203 1.79785156 C18.32710617 1.80099159 15.81508044 1.77763178 13.30200195 1.75219727 C11.69327947 1.74992213 10.08455384 1.74922177 8.47583008 1.75024414 C7.35825066 1.73642952 7.35825066 1.73642952 6.21809387 1.72233582 C-0.70228125 1.7827278 -6.34314419 4.06402041 -12.01245117 8.11352539 Z " fill="#E3E1FF" transform="translate(100.012451171875,68.886474609375)"/>
<path d="M0 0 C0.80060349 0.00007553 1.60120697 0.00015106 2.42607117 0.00022888 C3.71527214 0.00797081 3.71527214 0.00797081 5.03051758 0.01586914 C5.91411453 0.01728409 6.79771149 0.01869904 7.70808411 0.02015686 C10.53044011 0.0257547 13.3527168 0.03830678 16.17504883 0.05102539 C18.08845914 0.05604067 20.0018707 0.06060353 21.9152832 0.06469727 C26.60606897 0.07572342 31.29679545 0.09298656 35.98754883 0.11352539 C35.98754883 0.77352539 35.98754883 1.43352539 35.98754883 2.11352539 C34.40671509 2.13539917 34.40671509 2.13539917 32.79394531 2.15771484 C28.8593667 2.21597484 24.92534389 2.29320443 20.99121094 2.37597656 C19.29306097 2.40909622 17.59480434 2.437168 15.89648438 2.45996094 C13.44591096 2.49374708 10.99630352 2.54607178 8.54614258 2.60180664 C7.79481552 2.60819656 7.04348846 2.61458649 6.26939392 2.62117004 C-1.31783401 2.82969402 -6.91340251 5.56913619 -13.01245117 10.11352539 C-13.81166992 10.69618164 -14.61088867 11.27883789 -15.43432617 11.87915039 C-22.73753205 17.71307225 -26.47022541 23.86986274 -28.01245117 33.11352539 C-28.8080945 42.87867015 -28.48458966 52.70298729 -28.32495117 62.48852539 C-28.29696284 65.17078065 -28.27668124 67.85307583 -28.2565918 70.53540039 C-28.20188514 77.06194265 -28.11853636 83.58762659 -28.01245117 90.11352539 C-27.35245117 90.11352539 -26.69245117 90.11352539 -26.01245117 90.11352539 C-25.77461914 91.09192383 -25.77461914 91.09192383 -25.53198242 92.09008789 C-23.36222622 100.21768296 -20.17704744 105.33712788 -13.01245117 110.11352539 C-10.68809097 110.81083345 -8.35571412 111.48264691 -6.01245117 112.11352539 C-5.51745117 113.10352539 -5.51745117 113.10352539 -5.01245117 114.11352539 C-1.81165388 116.18164427 0.81570208 116.37494537 4.57885742 116.40405273 C5.70037201 116.41681244 6.8218866 116.42957214 7.97738647 116.44271851 C9.18472443 116.44494415 10.39206238 116.4471698 11.63598633 116.44946289 C12.88127106 116.45611969 14.12655579 116.46277649 15.40957642 116.46963501 C18.04411106 116.47976157 20.67823302 116.48531721 23.31274414 116.48413086 C26.00930551 116.48396813 28.70518895 116.49787938 31.40161133 116.52514648 C35.29244756 116.56178963 39.18249476 116.57160378 43.07348633 116.57446289 C44.27677582 116.58883392 45.48006531 116.60320496 46.71981812 116.61801147 C53.176174 116.58278629 57.03385832 116.36464176 61.98754883 112.11352539 C64.33129883 111.53149414 64.33129883 111.53149414 66.48754883 111.30102539 C71.8728032 110.2963813 73.86842545 107.35553319 76.98754883 103.11352539 C78.03942383 102.12352539 78.03942383 102.12352539 79.11254883 101.11352539 C84.70129508 95.15219605 86.11307525 89.15402623 86.12036133 81.18774414 C86.12179642 80.18902031 86.12179642 80.18902031 86.1232605 79.17012024 C86.1239394 77.76396592 86.12210537 76.35780842 86.11791992 74.95166016 C86.11259295 72.81869303 86.11786155 70.68593891 86.12426758 68.55297852 C86.12360625 67.18123327 86.12232396 65.80948815 86.12036133 64.43774414 C86.11866943 62.58282349 86.11866943 62.58282349 86.11694336 60.69042969 C85.98707039 57.10029967 85.56036896 53.65767222 84.98754883 50.11352539 C83.33754883 49.45352539 81.68754883 48.79352539 79.98754883 48.11352539 C79.98754883 47.78352539 79.98754883 47.45352539 79.98754883 47.11352539 C82.86254883 46.98852539 82.86254883 46.98852539 85.98754883 47.11352539 C88.38202695 49.50800351 88.24247815 50.03683436 88.26220703 53.30029297 C88.27173904 54.16491653 88.28127106 55.0295401 88.29109192 55.92036438 C88.29018051 56.85680283 88.2892691 57.79324127 88.28833008 58.75805664 C88.2926152 59.71999435 88.29690033 60.68193207 88.30131531 61.67301941 C88.30706602 63.71152967 88.30755344 65.75006045 88.30322266 67.78857422 C88.30007201 70.90310942 88.32348031 74.01668651 88.34887695 77.13110352 C88.35115084 79.11092003 88.35185303 81.09073909 88.35083008 83.07055664 C88.36003983 84.00092239 88.36924957 84.93128815 88.3787384 85.8898468 C88.3435388 90.82937297 88.12852672 94.06438445 84.98754883 98.11352539 C84.25402954 99.38185139 83.52428195 100.65237404 82.80004883 101.92602539 C82.20192383 102.97790039 81.60379883 104.02977539 80.98754883 105.11352539 C80.32754883 105.11352539 79.66754883 105.11352539 78.98754883 105.11352539 C78.78129883 105.67040039 78.57504883 106.22727539 78.36254883 106.80102539 C75.18645761 112.14263336 70.80138618 114.51757004 64.98754883 116.11352539 C64.09087494 116.47250916 64.09087494 116.47250916 63.17608643 116.83874512 C56.36391897 119.49157492 49.90524717 119.58106256 42.65942383 119.58227539 C41.39342346 119.58988892 40.1274231 119.59750244 38.82305908 119.60534668 C36.15344582 119.61611506 33.48472212 119.62039478 30.81518555 119.61450195 C27.43184319 119.6086251 24.04994544 119.63914453 20.66688156 119.67961884 C17.39359314 119.71203892 14.12034756 119.70737923 10.84692383 119.70727539 C9.65170105 119.72367065 8.45647827 119.74006592 7.22503662 119.75695801 C-1.08213697 119.68980878 -8.75657361 118.38892534 -16.01245117 114.11352539 C-17.77105713 111.55090332 -17.77105713 111.55090332 -19.01245117 109.11352539 C-20.66763166 107.327816 -20.66763166 107.327816 -22.44995117 105.73852539 C-30.03589031 98.31262717 -32.03403254 90.0644767 -32.28710938 79.66333008 C-32.30690086 77.2040844 -32.31502516 74.74472505 -32.31323242 72.28540039 C-32.31751755 70.97823059 -32.32180267 69.67106079 -32.32621765 68.32427979 C-32.33363124 65.5742992 -32.33342199 62.82444716 -32.328125 60.07446289 C-32.32230341 56.55842522 -32.33934877 53.04290974 -32.36246967 49.52695847 C-32.38075877 46.15475047 -32.37702225 42.78265769 -32.37573242 39.41040039 C-32.38494217 38.15201355 -32.39415192 36.89362671 -32.40364075 35.59710693 C-32.39741196 34.4252887 -32.39118317 33.25347046 -32.38476562 32.04614258 C-32.38570976 30.5046756 -32.38570976 30.5046756 -32.38667297 28.93206787 C-31.95259277 25.66268731 -30.85802224 23.81660557 -29.01245117 21.11352539 C-28.56256836 20.27692383 -28.11268555 19.44032227 -27.64916992 18.57836914 C-25.71003146 15.6580914 -23.57100906 13.84885822 -20.82495117 11.67602539 C-19.85170898 10.90387695 -18.8784668 10.13172852 -17.87573242 9.33618164 C-16.93084961 8.60270508 -15.9859668 7.86922852 -15.01245117 7.11352539 C-14.22225586 6.49348633 -13.43206055 5.87344727 -12.61791992 5.23461914 C-8.41816604 2.0010424 -5.46014859 -0.01722444 0 0 Z " fill="#BEBBFF" transform="translate(100.012451171875,68.886474609375)"/>
<path d="M0 0 C1.4865786 -0.00450165 1.4865786 -0.00450165 3.00318909 -0.00909424 C4.06682175 0.00325256 5.13045441 0.01559937 6.22631836 0.02832031 C7.32334579 0.03019348 8.42037323 0.03206665 9.55064392 0.03399658 C11.86810346 0.04071538 14.18555169 0.05462639 16.50292969 0.07519531 C20.05601506 0.10635632 23.60865674 0.11616756 27.16186523 0.12207031 C29.4125217 0.1312402 31.66317365 0.14161592 33.91381836 0.15332031 C34.97947525 0.15757019 36.04513214 0.16182007 37.14308167 0.16619873 C38.1309819 0.17580627 39.11888214 0.18541382 40.13671875 0.1953125 C41.00623672 0.2021405 41.8757547 0.20896851 42.7716217 0.21600342 C45.00366211 0.35644531 45.00366211 0.35644531 48.00366211 1.35644531 C48.49866211 3.83144531 48.49866211 3.83144531 49.00366211 6.35644531 C50.39584961 6.44925781 50.39584961 6.44925781 51.81616211 6.54394531 C55.00366211 7.35644531 55.00366211 7.35644531 56.44116211 9.41894531 C56.95678711 10.38832031 57.47241211 11.35769531 58.00366211 12.35644531 C59.14512445 13.7114186 60.31449108 15.04314369 61.50366211 16.35644531 C67.32092185 22.88402308 70.13430132 28.47848269 70.31616211 37.29394531 C70.60091936 43.25652011 70.60091936 43.25652011 73.56616211 48.23144531 C74.37053711 48.93269531 75.17491211 49.63394531 76.00366211 50.35644531 C73.10344482 49.05634791 70.95170894 47.89381723 69.00366211 45.35644531 C68.59741211 42.46582031 68.59741211 42.46582031 68.50366211 39.10644531 C68.1899487 33.65869136 67.6186159 30.11939685 65.00366211 25.35644531 C64.65303711 24.71320313 64.30241211 24.06996094 63.94116211 23.40722656 C57.72990796 12.6805541 50.66984393 8.86762625 39.00366211 5.35644531 C39.00366211 4.69644531 39.00366211 4.03644531 39.00366211 3.35644531 C33.39816385 3.42539504 27.79340631 3.51339759 22.18847656 3.61889648 C20.2826358 3.65210493 18.37669765 3.68014956 16.47070312 3.70288086 C13.72736196 3.73650199 10.98490989 3.78882126 8.24194336 3.84472656 C6.96822624 3.85431145 6.96822624 3.85431145 5.66877747 3.86408997 C0.92221231 3.98146642 -2.07824933 4.41296929 -5.99633789 7.35644531 C-6.90383789 7.91332031 -7.81133789 8.47019531 -8.74633789 9.04394531 C-12.45628914 11.68371832 -15.71572001 14.64593749 -19.04321289 17.74707031 C-20.99633789 19.35644531 -20.99633789 19.35644531 -22.99633789 19.35644531 C-23.26446289 20.07832031 -23.53258789 20.80019531 -23.80883789 21.54394531 C-24.99633789 24.35644531 -24.99633789 24.35644531 -26.54728699 26.66143799 C-28.23647952 29.80307106 -28.37082539 31.74118669 -28.36865234 35.2890625 C-28.37488113 36.46088074 -28.38110992 37.63269897 -28.38752747 38.84002686 C-28.37831772 40.0984137 -28.36910797 41.35680054 -28.35961914 42.65332031 C-28.36011765 43.95666321 -28.36061615 45.2600061 -28.36112976 46.60284424 C-28.3610402 49.36002207 -28.35065034 52.11690653 -28.33251953 54.87402344 C-28.30992221 58.38522127 -28.30927384 61.89598761 -28.31603718 65.40723801 C-28.32021138 68.78097992 -28.30817879 72.15459312 -28.29711914 75.52832031 C-28.29803055 76.77861023 -28.29894196 78.02890015 -28.29988098 79.31707764 C-28.20330399 91.31752159 -26.62651648 100.5003889 -18.04711914 109.37207031 C-16.82430397 110.55271945 -15.582527 111.71427585 -14.31665039 112.84863281 C-12.99633789 114.35644531 -12.99633789 114.35644531 -12.99633789 117.35644531 C-12.15071289 117.45957031 -11.30508789 117.56269531 -10.43383789 117.66894531 C-6.99633789 118.35644531 -6.99633789 118.35644531 -4.11108398 119.87451172 C1.4133958 122.28703784 7.35702009 121.78420193 13.27709961 121.75488281 C14.55541656 121.75775299 15.83373352 121.76062317 17.15078735 121.76358032 C19.84892737 121.76798596 22.54676804 121.76163224 25.24487305 121.74755859 C28.67990265 121.73050173 32.11422703 121.74029606 35.54923058 121.75827599 C38.85440785 121.77181436 42.15940239 121.76229281 45.46459961 121.75488281 C47.29781265 121.76399185 47.29781265 121.76399185 49.1680603 121.77328491 C55.31315471 121.72310059 60.49208528 121.31862361 66.21792603 118.99868774 C68.00366211 118.35644531 68.00366211 118.35644531 71.00366211 118.35644531 C69.62866211 119.85644531 69.62866211 119.85644531 68.00366211 121.35644531 C67.34366211 121.35644531 66.68366211 121.35644531 66.00366211 121.35644531 C66.00366211 122.01644531 66.00366211 122.67644531 66.00366211 123.35644531 C56.81553289 123.42595364 47.62749417 123.47926071 38.43915939 123.51188183 C34.17264266 123.52753829 29.90630579 123.54877607 25.63989258 123.58276367 C21.52260825 123.61535803 17.40549695 123.63329847 13.28809357 123.64107704 C11.71719896 123.64662044 10.14631382 123.65744536 8.57549286 123.67363548 C6.37523428 123.69541133 4.17569078 123.69841226 1.9753418 123.69702148 C0.72291687 123.70368332 -0.52950806 123.71034515 -1.81988525 123.71720886 C-5.24936334 123.32770811 -6.49508976 122.64212363 -8.99633789 120.35644531 C-10.39499785 119.59330785 -11.81180524 118.86230276 -13.24633789 118.16894531 C-14.30594727 117.65267578 -14.30594727 117.65267578 -15.38696289 117.12597656 C-15.91805664 116.87203125 -16.44915039 116.61808594 -16.99633789 116.35644531 C-16.99633789 115.69644531 -16.99633789 115.03644531 -16.99633789 114.35644531 C-18.31633789 113.69644531 -19.63633789 113.03644531 -20.99633789 112.35644531 C-20.99633789 111.69644531 -20.99633789 111.03644531 -20.99633789 110.35644531 C-21.65633789 110.35644531 -22.31633789 110.35644531 -22.99633789 110.35644531 C-23.26188477 109.79054688 -23.52743164 109.22464844 -23.80102539 108.64160156 C-24.15422852 107.908125 -24.50743164 107.17464844 -24.87133789 106.41894531 C-25.21938477 105.68804687 -25.56743164 104.95714844 -25.92602539 104.20410156 C-26.86483559 102.19312072 -26.86483559 102.19312072 -28.99633789 101.35644531 C-30.13718586 97.93390142 -30.13729519 95.27963008 -30.1574707 91.66943359 C-30.16243561 90.99427704 -30.16740051 90.31912048 -30.17251587 89.62350464 C-30.18711387 87.39124531 -30.19393536 85.15905703 -30.19946289 82.92675781 C-30.20521609 81.37360635 -30.2109738 79.8204549 -30.21673584 78.26730347 C-30.22723896 75.01071848 -30.2330862 71.75415813 -30.23657227 68.49755859 C-30.24205696 64.32898461 -30.26608712 60.16073726 -30.29454422 55.9922657 C-30.31318678 52.78375299 -30.31837704 49.57531873 -30.31990814 46.36675644 C-30.32293133 44.83019092 -30.33094862 43.29362668 -30.34409332 41.75711441 C-30.36118901 39.60524018 -30.35926555 37.45416108 -30.3527832 35.30224609 C-30.35642883 34.07885529 -30.36007446 32.85546448 -30.36383057 31.59500122 C-29.96049932 28.04061528 -29.05008081 26.24395671 -26.99633789 23.35644531 C-24.81605353 20.45927918 -24.81605353 20.45927918 -24.18383789 16.98144531 C-21.98066568 10.25597224 -17.16832918 7.66017738 -11.17993164 4.56738281 C-8.96394801 3.43258081 -8.96394801 3.43258081 -7.1721344 1.80303955 C-4.55024612 0.05985793 -3.12373023 -0.0130849 0 0 Z " fill="#3328FF" transform="translate(96.996337890625,65.6435546875)"/>
<path d="M0 0 C15.84 0 31.68 0 48 0 C48 2.64 48 5.28 48 8 C46.44769961 9.55230039 44.96297258 9.14242221 42.80322266 9.16113281 C41.91204742 9.17074036 41.02087219 9.1803479 40.10269165 9.19024658 C38.64807022 9.1966214 38.64807022 9.1966214 37.1640625 9.203125 C36.17377045 9.20882507 35.18347839 9.21452515 34.16317749 9.22039795 C32.063223 9.229864 29.96325355 9.23638827 27.86328125 9.24023438 C24.64557028 9.24993797 21.42849832 9.28094562 18.2109375 9.3125 C16.17448298 9.31902986 14.13802386 9.3242804 12.1015625 9.328125 C11.13586334 9.3404718 10.17016418 9.3528186 9.17520142 9.36553955 C8.27772186 9.36253845 7.38024231 9.35953735 6.45556641 9.35644531 C5.27095322 9.36191376 5.27095322 9.36191376 4.06240845 9.36749268 C2 9 2 9 0.1590271 7.85272217 C-1 6 -1 6 0 0 Z " fill="#2317FF" transform="translate(105,145)"/>
<path d="M0 0 C2.875 -0.125 2.875 -0.125 6 0 C8.39447812 2.39447812 8.25492932 2.92330897 8.2746582 6.18676758 C8.28419022 7.05139114 8.29372223 7.91601471 8.30354309 8.80683899 C8.30263168 9.74327744 8.30172028 10.67971588 8.30078125 11.64453125 C8.30506638 12.60646896 8.3093515 13.56840668 8.31376648 14.55949402 C8.3195172 16.59800428 8.32000461 18.63653506 8.31567383 20.67504883 C8.31252318 23.78958402 8.33593149 26.90316112 8.36132812 30.01757812 C8.36360201 31.99739463 8.3643042 33.9772137 8.36328125 35.95703125 C8.372491 36.887397 8.38170074 37.81776276 8.39118958 38.77632141 C8.35598997 43.71584758 8.14097789 46.95085906 5 51 C4.26648071 52.268326 3.53673312 53.53884865 2.8125 54.8125 C2.214375 55.864375 1.61625 56.91625 1 58 C0.34 58 -0.32 58 -1 58 C-1.309375 58.8353125 -1.309375 58.8353125 -1.625 59.6875 C-4.80109122 65.02910796 -9.18616265 67.40404465 -15 69 C-15.89667389 69.35898376 -15.89667389 69.35898376 -16.8114624 69.72521973 C-23.62362986 72.37804953 -30.08230166 72.46753717 -37.328125 72.46875 C-38.59412537 72.47636353 -39.86012573 72.48397705 -41.16448975 72.49182129 C-43.83410301 72.50258967 -46.5028267 72.50686939 -49.17236328 72.50097656 C-52.55570563 72.49509971 -55.93760339 72.52561914 -59.32066727 72.56609344 C-62.59395569 72.59851353 -65.86720126 72.59385384 -69.140625 72.59375 C-70.33584778 72.61014526 -71.53107056 72.62654053 -72.76251221 72.64343262 C-81.0696858 72.57628339 -88.74412244 71.27539995 -96 67 C-97.75860596 64.43737793 -97.75860596 64.43737793 -99 62 C-100.65518048 60.21429061 -100.65518048 60.21429061 -102.4375 58.625 C-105.82841172 55.32048094 -108.04136329 52.32532274 -110 48 C-109.59375 45.79296875 -109.59375 45.79296875 -109 44 C-108.52433594 45.051875 -108.52433594 45.051875 -108.0390625 46.125 C-104.17694695 53.97725702 -99.22099604 60.51833912 -90.8359375 63.86328125 C-89.23708925 64.29424652 -87.619658 64.65539191 -86 65 C-85.505 65.99 -85.505 65.99 -85 67 C-81.79920271 69.06811888 -79.17184675 69.26141998 -75.40869141 69.29052734 C-74.28717682 69.30328705 -73.16566223 69.31604675 -72.01016235 69.32919312 C-70.8028244 69.33141876 -69.59548645 69.33364441 -68.3515625 69.3359375 C-67.10627777 69.3425943 -65.86099304 69.3492511 -64.57797241 69.35610962 C-61.94343777 69.36623618 -59.30931581 69.37179182 -56.67480469 69.37060547 C-53.97824332 69.37044274 -51.28235988 69.38435399 -48.5859375 69.41162109 C-44.69510127 69.44826424 -40.80505406 69.45807839 -36.9140625 69.4609375 C-35.71077301 69.47530853 -34.50748352 69.48967957 -33.26773071 69.50448608 C-26.81137482 69.4692609 -22.95369051 69.25111637 -18 65 C-15.65625 64.41796875 -15.65625 64.41796875 -13.5 64.1875 C-8.11474563 63.18285591 -6.11912338 60.2420078 -3 56 C-2.29875 55.34 -1.5975 54.68 -0.875 54 C4.71374625 48.03867066 6.12552643 42.04050084 6.1328125 34.07421875 C6.13424759 33.07549492 6.13424759 33.07549492 6.13571167 32.05659485 C6.13639057 30.65044052 6.13455654 29.24428302 6.13037109 27.83813477 C6.12504412 25.70516764 6.13031272 23.57241352 6.13671875 21.43945312 C6.13605742 20.06770787 6.13477513 18.69596276 6.1328125 17.32421875 C6.13112061 15.4692981 6.13112061 15.4692981 6.12939453 13.5769043 C5.99952156 9.98677428 5.57282014 6.54414683 5 3 C3.35 2.34 1.7 1.68 0 1 C0 0.67 0 0.34 0 0 Z " fill="#5950FF" transform="translate(180,116)"/>
<path d="M0 0 C0.98746216 -0.00143509 0.98746216 -0.00143509 1.99487305 -0.00289917 C3.38688248 -0.00357975 4.7788951 -0.00173396 6.17089844 0.00244141 C8.30410883 0.00779146 10.43710867 0.00249238 12.5703125 -0.00390625 C13.92187547 -0.00324545 15.2734383 -0.00196424 16.625 0 C18.47544922 0.00169189 18.47544922 0.00169189 20.36328125 0.00341797 C23.3125 0.1328125 23.3125 0.1328125 25.3125 1.1328125 C25.35491723 3.46576025 25.35342937 5.79983817 25.3125 8.1328125 C24.3125 9.1328125 24.3125 9.1328125 21.26147461 9.24633789 C19.91258729 9.24617884 18.56369386 9.24048862 17.21484375 9.23046875 C16.15155602 9.22834633 16.15155602 9.22834633 15.06678772 9.22618103 C12.79448288 9.22056693 10.52227525 9.20801213 8.25 9.1953125 C6.71289204 9.19029931 5.17578255 9.18573609 3.63867188 9.18164062 C-0.13675642 9.17059292 -3.91211171 9.15331891 -7.6875 9.1328125 C-9.04189668 6.42401915 -8.75251451 4.12347982 -8.6875 1.1328125 C-5.78524449 -0.31831526 -3.23838766 0.00296091 0 0 Z " fill="#0600FF" transform="translate(111.6875,101.8671875)"/>
<path d="M0 0 C0 0.99 0 1.98 0 3 C-1.93359375 4.7265625 -1.93359375 4.7265625 -4.4375 6.625 C-7.86214278 9.4526047 -7.86214278 9.4526047 -9.71484375 13.34765625 C-9.8195851 14.87790178 -9.88376936 16.41159899 -9.90234375 17.9453125 C-10.0426384 20.8971119 -11.17304788 22.73457937 -13 25 C-13.66 25 -14.32 25 -15 25 C-14.95790547 31.29522503 -14.88517579 37.58959607 -14.79248047 43.88427734 C-14.76448975 46.01961539 -14.74316794 48.15505283 -14.72900391 50.29052734 C-14.62972366 66.56055858 -14.62972366 66.56055858 -10.84863281 82.28857422 C-9.99250251 85.02395488 -9.83740607 87.15460618 -10 90 C-9.34 90 -8.68 90 -8 90 C-7.7525 90.804375 -7.505 91.60875 -7.25 92.4375 C-6.28885283 95.15311231 -6.28885283 95.15311231 -4 95.75 C-3.34 95.8325 -2.68 95.915 -2 96 C-1.34 96.33 -0.68 96.66 0 97 C0 97.99 0 98.98 0 100 C1.2375 100.0825 2.475 100.165 3.75 100.25 C7.76376913 100.73136914 9.36157763 101.8729809 12 105 C15.02056161 106.00685387 17.13554614 106.15372686 20.29760742 106.20532227 C21.37850143 106.22526749 22.45939545 106.24521271 23.57304382 106.26576233 C24.73874405 106.28247482 25.90444427 106.29918732 27.10546875 106.31640625 C28.89698112 106.3475779 28.89698112 106.3475779 30.72468567 106.37937927 C34.54556443 106.44484276 38.36651276 106.5037451 42.1875 106.5625 C44.77539786 106.60568824 47.36328865 106.64930263 49.95117188 106.69335938 C56.30070739 106.80052092 62.65031234 106.9022934 69 107 C69 107.33 69 107.66 69 108 C61.65454046 108.069608 54.30915241 108.12286584 46.96342945 108.15543652 C43.55224239 108.17107139 40.14128151 108.19226914 36.73022461 108.22631836 C32.80585466 108.26524491 28.88157529 108.2797273 24.95703125 108.29296875 C23.73603226 108.30845261 22.51503326 108.32393646 21.2570343 108.33988953 C20.1162291 108.34011612 18.97542389 108.34034271 17.80004883 108.34057617 C16.79855301 108.34723801 15.79705719 108.35389984 14.76521301 108.36076355 C11.51557446 107.93679942 9.60935409 106.95773737 7 105 C7 104.34 7 103.68 7 103 C5.989375 102.95875 4.97875 102.9175 3.9375 102.875 C-1.96658947 102.03838813 -5.43821505 97.68841616 -9.3125 93.5 C-12.1072954 89.35956237 -13 85.97647868 -13 81 C-13.66 81 -14.32 81 -15 81 C-16.2515518 78.49689639 -16.1541471 76.7478196 -16.19287109 73.94628906 C-16.20893402 72.89048645 -16.22499695 71.83468384 -16.24154663 70.74688721 C-16.28621198 65.87114114 -16.32714201 60.99553256 -16.35009766 56.11962891 C-16.36656156 53.56126753 -16.39372255 51.00295028 -16.43212891 48.44482422 C-16.91701678 15.96576977 -16.91701678 15.96576977 -7.4375 5.8125 C-6.31758375 4.84418813 -5.17429619 3.90159233 -4 3 C-3.195625 2.360625 -2.39125 1.72125 -1.5625 1.0625 C-1.046875 0.711875 -0.53125 0.36125 0 0 Z " fill="#C3C0FF" transform="translate(87,78)"/>
<path d="M0 0 C1.45677406 -0.01429802 1.45677406 -0.01429802 2.94297791 -0.02888489 C3.99505936 -0.02797348 5.04714081 -0.02706207 6.13110352 -0.02612305 C7.2087648 -0.03040817 8.28642609 -0.0346933 9.39674377 -0.03910828 C11.67903947 -0.04485906 13.96135351 -0.04534636 16.24365234 -0.04101562 C19.74226058 -0.03785782 23.24002194 -0.06129881 26.73852539 -0.08666992 C28.95271703 -0.08894298 31.16691095 -0.08964638 33.38110352 -0.08862305 C34.95618935 -0.10243767 34.95618935 -0.10243767 36.56309509 -0.11653137 C37.53742996 -0.11030258 38.51176483 -0.10407379 39.515625 -0.09765625 C40.37341049 -0.09828568 41.23119598 -0.0989151 42.11497498 -0.0995636 C44.80305155 0.35611976 45.68617444 1.13261002 47.32250977 3.2746582 C47.83793426 6.07346864 47.55127215 8.39225216 47.32250977 11.2746582 C45.32250977 13.2746582 45.32250977 13.2746582 43.15257263 13.52189636 C42.25402054 13.52047134 41.35546844 13.51904633 40.4296875 13.51757812 C39.4120079 13.52065475 38.39432831 13.52373138 37.34580994 13.52690125 C36.24370682 13.51971573 35.1416037 13.51253021 34.00610352 13.50512695 C32.87930679 13.50466873 31.75251007 13.50421051 30.59156799 13.5037384 C28.20670521 13.50071357 25.82184444 13.49282041 23.43701172 13.48046875 C19.77182068 13.46221702 16.10688211 13.45995897 12.44165039 13.46020508 C10.12979923 13.45528993 7.8179498 13.44946163 5.50610352 13.44262695 C4.40197617 13.44151413 3.29784882 13.44040131 2.16026306 13.43925476 C1.14573563 13.43287491 0.13120819 13.42649506 -0.9140625 13.41992188 C-2.26069725 13.41420418 -2.26069725 13.41420418 -3.63453674 13.40837097 C-5.67749023 13.2746582 -5.67749023 13.2746582 -6.67749023 12.2746582 C-6.80203884 10.63235456 -6.85317548 8.98413544 -6.86499023 7.3371582 C-6.87916992 6.44125977 -6.89334961 5.54536133 -6.90795898 4.62231445 C-6.46046818 0.0639759 -3.95597273 0.0212683 0 0 Z M-2.67749023 2.2746582 C-4.27503794 7.77446285 -4.27503794 7.77446285 -2.51846313 10.12738037 C-0.24176459 11.54619852 1.10268531 11.64345373 3.77807617 11.63110352 C4.67555573 11.63410461 5.57303528 11.63710571 6.49771118 11.64019775 C7.46341034 11.62785095 8.4291095 11.61550415 9.42407227 11.6027832 C10.91238052 11.59997345 10.91238052 11.59997345 12.43075562 11.59710693 C14.52719485 11.59038474 16.6236215 11.57646694 18.7199707 11.5559082 C21.94176791 11.5247138 25.16307643 11.51493418 28.38500977 11.5090332 C30.41886994 11.49986509 32.45272512 11.48948993 34.48657227 11.4777832 C35.45631989 11.47353333 36.4260675 11.46928345 37.42520142 11.46490479 C38.76196426 11.45049347 38.76196426 11.45049347 40.12573242 11.43579102 C41.30795883 11.42554901 41.30795883 11.42554901 42.5140686 11.4151001 C44.34373593 11.47017727 44.34373593 11.47017727 45.32250977 10.2746582 C45.32250977 7.6346582 45.32250977 4.9946582 45.32250977 2.2746582 C29.48250977 2.2746582 13.64250977 2.2746582 -2.67749023 2.2746582 Z " fill="#A49FFF" transform="translate(107.677490234375,142.725341796875)"/>
<path d="M0 0 C10.61876028 0.88489669 17.15377809 5.99174043 24 14 C25.875 17.125 25.875 17.125 27 20 C27.53625 21.010625 28.0725 22.02125 28.625 23.0625 C30.57242671 27.51661443 30.41159532 32.21784111 30.49609375 37.01171875 C31.11190372 40.66361506 32.03562032 41.8309417 35 44 C37.17637752 44.57869715 37.17637752 44.57869715 39.4375 44.5625 C43.35563964 44.82112308 45.78139231 45.61200074 49 48 C48.67 49.32 48.34 50.64 48 52 C47.38125 51.525625 46.7625 51.05125 46.125 50.5625 C42.43876825 48.71938413 39.57064847 48.59931207 35.5 48.50390625 C31.9853696 47.79548856 30.42560498 46.63999988 28 44 C27.40878748 41.25571502 27.07786226 38.95136052 26.9375 36.1875 C26.58230551 29.98615362 25.32658777 26.28492988 22 21 C21.67 19.96875 21.34 18.9375 21 17.875 C19.54039814 13.67864467 17.28789276 10.96591957 13.75 8.3125 C13.1725 7.879375 12.595 7.44625 12 7 C12 6.34 12 5.68 12 5 C10.7625 4.9175 9.525 4.835 8.25 4.75 C5.01117036 4.36524541 4.12092117 4.09975997 1.5 1.9375 C1.005 1.298125 0.51 0.65875 0 0 Z " fill="#BBB8FF" transform="translate(136,71)"/>
<path d="M0 0 C1.77206192 0.00015919 3.54412846 0.00585754 5.31616211 0.01586914 C6.24698105 0.01728409 7.17779999 0.01869904 8.13682556 0.02015686 C11.12241777 0.02577367 14.10793615 0.03832899 17.09350586 0.05102539 C19.11238499 0.05603823 21.13126529 0.06060151 23.15014648 0.06469727 C28.11046158 0.07574856 33.07072118 0.09302444 38.03100586 0.11352539 C38.03100586 1.43352539 38.03100586 2.75352539 38.03100586 4.11352539 C34.64707578 5.80549043 30.80622795 5.23339088 27.08569336 5.21118164 C26.20068146 5.20976669 25.31566956 5.20835175 24.40383911 5.20689392 C21.57119395 5.20128679 18.73862722 5.1887331 15.90600586 5.17602539 C13.98803825 5.17101131 12.0700694 5.16644824 10.15209961 5.16235352 C5.44503804 5.15131505 0.73803526 5.13404564 -3.96899414 5.11352539 C-4.53149414 3.17602539 -4.53149414 3.17602539 -4.96899414 1.11352539 C-3.96899414 0.11352539 -3.96899414 0.11352539 0 0 Z " fill="#0601FF" transform="translate(110.968994140625,146.886474609375)"/>
<path d="M0 0 C0.9213826 -0.00622879 1.8427652 -0.01245758 2.79206848 -0.01887512 C3.78582993 -0.00966537 4.77959137 -0.00045563 5.8034668 0.0090332 C7.34057564 0.00828545 7.34057564 0.00828545 8.90873718 0.00752258 C11.07833797 0.00986428 13.24794142 0.0195984 15.41748047 0.03613281 C18.72933441 0.05964865 22.04037913 0.05670372 25.35229492 0.05004883 C27.46102366 0.0556283 29.56974901 0.06273986 31.6784668 0.0715332 C33.15999992 0.07016609 33.15999992 0.07016609 34.67146301 0.06877136 C39.65543777 0.11980845 43.77013738 0.40347741 48.44018555 2.37231445 C48.44018555 3.03231445 48.44018555 3.69231445 48.44018555 4.37231445 C49.83237305 4.46512695 49.83237305 4.46512695 51.25268555 4.55981445 C54.44018555 5.37231445 54.44018555 5.37231445 55.87768555 7.43481445 C56.39331055 8.40418945 56.90893555 9.37356445 57.44018555 10.37231445 C58.58164789 11.72728774 59.75101451 13.05901283 60.94018555 14.37231445 C66.75744529 20.89989222 69.57082475 26.49435183 69.75268555 35.30981445 C70.0374428 41.27238925 70.0374428 41.27238925 73.00268555 46.24731445 C73.80706055 46.94856445 74.61143555 47.64981445 75.44018555 48.37231445 C72.53996826 47.07221705 70.38823238 45.90968637 68.44018555 43.37231445 C68.03393555 40.48168945 68.03393555 40.48168945 67.94018555 37.12231445 C67.62647214 31.6745605 67.05513933 28.13526599 64.44018555 23.37231445 C64.08956055 22.72907227 63.73893555 22.08583008 63.37768555 21.4230957 C57.16643139 10.69642324 50.10636737 6.88349539 38.44018555 3.37231445 C38.44018555 2.71231445 38.44018555 2.05231445 38.44018555 1.37231445 C32.83468728 1.44126418 27.22992975 1.52926673 21.625 1.63476562 C19.71915923 1.66797407 17.81322108 1.69601871 15.90722656 1.71875 C13.1638854 1.75237113 10.42143333 1.8046904 7.6784668 1.8605957 C6.40474968 1.87018059 6.40474968 1.87018059 5.1053009 1.87995911 C0.35873575 1.99733556 -2.64172589 2.42883843 -6.55981445 5.37231445 C-7.92106445 6.20762695 -7.92106445 6.20762695 -9.30981445 7.05981445 C-13.68972602 10.17628999 -17.59890209 13.74587913 -21.55981445 17.37231445 C-21.55981445 12.76304125 -18.73634471 10.68795115 -15.7277832 7.3918457 C-13.16210198 5.00183275 -10.95231531 4.16126814 -7.55981445 3.37231445 C-7.10343094 2.87210281 -6.64704742 2.37189117 -6.17683411 1.85652161 C-4.04294505 -0.10210233 -2.86488074 -0.00222568 0 0 Z " fill="#6057FF" transform="translate(97.559814453125,67.627685546875)"/>
<path d="M0 0 C1.04844589 0.00607269 1.04844589 0.00607269 2.11807251 0.01226807 C2.8382254 0.01035461 3.5583783 0.00844116 4.300354 0.00646973 C5.82520903 0.00510786 7.35007565 0.00880443 8.87490845 0.01715088 C11.20362613 0.02781972 13.53156689 0.01727225 15.86026001 0.00445557 C17.34203254 0.00577777 18.82380459 0.00834143 20.30557251 0.01226807 C21.34794571 0.00619537 21.34794571 0.00619537 22.41137695 0 C26.05508971 0.03512797 28.7446689 0.28385546 31.84463501 2.27789307 C32.09463501 9.90289307 32.09463501 9.90289307 29.84463501 13.27789307 C27.17233448 13.55737435 24.73478247 13.65005525 22.06338501 13.60601807 C21.29409668 13.6041449 20.52480835 13.60227173 19.73220825 13.6003418 C18.10476349 13.59361545 16.47733506 13.57968934 14.8500061 13.55914307 C12.35457388 13.52801704 9.85977326 13.51817599 7.36416626 13.51226807 C5.78473145 13.50309695 4.20530309 13.49272083 2.62588501 13.48101807 C1.87689941 13.47676819 1.12791382 13.47251831 0.35623169 13.46813965 C-4.92095851 13.3950963 -4.92095851 13.3950963 -7.15536499 12.27789307 C-7.20931977 10.65325465 -7.24813694 9.02810766 -7.28036499 7.40289307 C-7.30356812 6.49797119 -7.32677124 5.59304932 -7.35067749 4.66070557 C-6.95766365 -0.13406324 -4.14633264 0.0403627 0 0 Z M-5.15536499 3.27789307 C-5.36507058 7.41883005 -5.36507058 7.41883005 -4.15536499 11.27789307 C0.38361206 11.30254699 4.92255044 11.32073095 9.46157837 11.33282471 C11.00683267 11.33786446 12.55208217 11.34469626 14.09732056 11.35333252 C16.3138853 11.36541383 18.53038719 11.37112479 20.74697876 11.37554932 C21.78917824 11.38329124 21.78917824 11.38329124 22.85243225 11.39118958 C24.51692831 11.39138583 26.18129 11.33978435 27.84463501 11.27789307 C29.26040978 10.0936498 29.26040978 10.0936498 28.90713501 6.71539307 C28.88651001 5.58101807 28.86588501 4.44664307 28.84463501 3.27789307 C25.9423795 1.82676531 23.39552267 2.14804147 20.15713501 2.14508057 C19.4988269 2.14412384 18.8405188 2.14316711 18.16226196 2.1421814 C16.77025253 2.14150082 15.37823991 2.14334661 13.98623657 2.14752197 C11.85302618 2.15287202 9.72002634 2.14757294 7.58682251 2.14117432 C6.23525954 2.14183512 4.88369671 2.14311633 3.53213501 2.14508057 C2.2985022 2.1462085 1.06486938 2.14733643 -0.20614624 2.14849854 C-3.0876183 2.07419503 -3.0876183 2.07419503 -5.15536499 3.27789307 Z " fill="#9590FF" transform="translate(108.15536499023438,99.72210693359375)"/>
<path d="M0 0 C1.11785889 -0.00315216 2.23571777 -0.00630432 3.38745117 -0.009552 C5.21240112 -0.00651566 5.21240112 -0.00651566 7.07421875 -0.00341797 C8.31341064 -0.00437469 9.55260254 -0.00533142 10.8293457 -0.00631714 C13.45560156 -0.00699921 16.08176508 -0.00564085 18.70800781 -0.00097656 C22.08100589 0.00472073 25.4539244 0.00144151 28.82691956 -0.00454903 C32.03435552 -0.00902317 35.24178175 -0.00589429 38.44921875 -0.00341797 C39.66585205 -0.0054422 40.88248535 -0.00746643 42.13598633 -0.009552 C43.81277466 -0.00482376 43.81277466 -0.00482376 45.5234375 0 C46.51303467 0.00079559 47.50263184 0.00159119 48.5222168 0.00241089 C50.76171875 0.12939453 50.76171875 0.12939453 51.76171875 1.12939453 C51.86064815 3.2942025 51.89142975 5.46233238 51.88671875 7.62939453 C51.89058594 9.40830078 51.89058594 9.40830078 51.89453125 11.22314453 C51.76171875 14.12939453 51.76171875 14.12939453 50.76171875 15.12939453 C49.05399453 15.23343299 47.34198069 15.26792677 45.63110352 15.2746582 C43.98918785 15.28422798 43.98918785 15.28422798 42.31410217 15.29399109 C41.12247971 15.29510391 39.93085724 15.29621674 38.703125 15.29736328 C37.48850082 15.30069168 36.27387665 15.30402008 35.02244568 15.30744934 C32.44750346 15.31252376 29.87255464 15.31485751 27.29760742 15.31469727 C23.34477978 15.31688316 19.3922313 15.33503215 15.43945312 15.35400391 C12.94401138 15.35693775 10.4485683 15.35892261 7.953125 15.35986328 C6.76352676 15.3670488 5.57392853 15.37423431 4.34828186 15.38163757 C3.25051926 15.37856094 2.15275665 15.37548431 1.02172852 15.37231445 C0.05211685 15.37373947 -0.91749481 15.37516449 -1.91648865 15.37663269 C-4.23828125 15.12939453 -4.23828125 15.12939453 -6.23828125 13.12939453 C-6.46875 10.34423828 -6.46875 10.34423828 -6.42578125 7.06689453 C-6.41933594 5.98279297 -6.41289063 4.89869141 -6.40625 3.78173828 C-6.11271336 -0.8534101 -4.16194456 0.00334602 0 0 Z M-4.23828125 3.12939453 C-4.51918412 5.53430875 -4.51918412 5.53430875 -4.42578125 8.19189453 C-4.41933594 9.09037109 -4.41289063 9.98884766 -4.40625 10.91455078 C-4.48222868 13.10265052 -4.48222868 13.10265052 -3.23828125 14.12939453 C-1.65312547 14.23314411 -0.06338659 14.26791343 1.52514648 14.2746582 C3.04693764 14.28422798 3.04693764 14.28422798 4.59947205 14.29399109 C5.7035994 14.29510391 6.80772675 14.29621674 7.9453125 14.29736328 C9.0711525 14.30069168 10.19699249 14.30402008 11.35694885 14.30744934 C13.74357696 14.31252347 16.1302122 14.31485752 18.5168457 14.31469727 C22.17996849 14.31688304 25.84278997 14.33503193 29.50585938 14.35400391 C31.81900938 14.35693779 34.13216083 14.35892262 36.4453125 14.35986328 C38.09846718 14.37064156 38.09846718 14.37064156 39.78501892 14.38163757 C40.80269852 14.37856094 41.82037811 14.37548431 42.86889648 14.37231445 C44.21672462 14.37445198 44.21672462 14.37445198 45.59178162 14.37663269 C47.97270878 14.33341306 47.97270878 14.33341306 49.76171875 12.12939453 C50.43883268 7.00687259 50.43883268 7.00687259 48.53944397 2.52937317 C46.22002423 0.702804 44.8875093 0.75492814 41.95483398 0.75708008 C40.98049911 0.75085129 40.00616425 0.7446225 39.00230408 0.73820496 C37.95224686 0.7474147 36.90218964 0.75662445 35.8203125 0.76611328 C34.20238548 0.76536552 34.20238548 0.76536552 32.55177307 0.76460266 C30.27123167 0.76694384 27.99068772 0.77667486 25.71020508 0.79321289 C22.20956459 0.81682475 18.70968434 0.8137716 15.20898438 0.80712891 C12.99608919 0.81270482 10.78319722 0.81981414 8.5703125 0.82861328 C7.51823105 0.82770187 6.4661496 0.82679047 5.38218689 0.82585144 C3.92541283 0.84014946 3.92541283 0.84014946 2.43920898 0.85473633 C1.15372414 0.86164742 1.15372414 0.86164742 -0.1577301 0.86869812 C-2.45891549 0.94089132 -2.45891549 0.94089132 -4.23828125 3.12939453 Z " fill="#D6D4FF" transform="translate(105.23828125,141.87060546875)"/>
<path d="M0 0 C2.875 -0.125 2.875 -0.125 6 0 C8.39447812 2.39447812 8.25492932 2.92330897 8.2746582 6.18676758 C8.28895622 7.48370293 8.28895622 7.48370293 8.30354309 8.80683899 C8.30263168 9.74327744 8.30172028 10.67971588 8.30078125 11.64453125 C8.30506638 12.60646896 8.3093515 13.56840668 8.31376648 14.55949402 C8.3195172 16.59800428 8.32000461 18.63653506 8.31567383 20.67504883 C8.31252318 23.78958402 8.33593149 26.90316112 8.36132812 30.01757812 C8.36360201 31.99739463 8.3643042 33.9772137 8.36328125 35.95703125 C8.372491 36.887397 8.38170074 37.81776276 8.39118958 38.77632141 C8.35598997 43.71584758 8.14097789 46.95085906 5 51 C4.26648071 52.268326 3.53673312 53.53884865 2.8125 54.8125 C2.214375 55.864375 1.61625 56.91625 1 58 C0.34 58 -0.32 58 -1 58 C-1.20625 58.556875 -1.4125 59.11375 -1.625 59.6875 C-4.81458109 65.05179547 -9.17678903 67.35430994 -15 69 C-16.051875 69.5878125 -16.051875 69.5878125 -17.125 70.1875 C-19.49598042 71.21492485 -20.57841918 70.70838775 -23 70 C-21.58847656 69.36384766 -21.58847656 69.36384766 -20.1484375 68.71484375 C-12.99703288 65.38627008 -7.63641471 62.57377371 -3 56 C-2.29875 55.34 -1.5975 54.68 -0.875 54 C4.71374625 48.03867066 6.12552643 42.04050084 6.1328125 34.07421875 C6.13376923 33.40840286 6.13472595 32.74258698 6.13571167 32.05659485 C6.13639057 30.65044052 6.13455654 29.24428302 6.13037109 27.83813477 C6.12504412 25.70516764 6.13031272 23.57241352 6.13671875 21.43945312 C6.13605742 20.06770787 6.13477513 18.69596276 6.1328125 17.32421875 C6.13168457 16.08760498 6.13055664 14.85099121 6.12939453 13.5769043 C5.99952156 9.98677428 5.57282014 6.54414683 5 3 C3.35 2.34 1.7 1.68 0 1 C0 0.67 0 0.34 0 0 Z " fill="#5E55FF" transform="translate(180,116)"/>
<path d="M0 0 C1.4865786 -0.00450165 1.4865786 -0.00450165 3.00318909 -0.00909424 C4.06682175 0.00325256 5.13045441 0.01559937 6.22631836 0.02832031 C7.32334579 0.03019348 8.42037323 0.03206665 9.55064392 0.03399658 C11.86810346 0.04071538 14.18555169 0.05462639 16.50292969 0.07519531 C20.05601506 0.10635632 23.60865674 0.11616756 27.16186523 0.12207031 C29.4125217 0.1312402 31.66317365 0.14161592 33.91381836 0.15332031 C34.97947525 0.15757019 36.04513214 0.16182007 37.14308167 0.16619873 C38.1309819 0.17580627 39.11888214 0.18541382 40.13671875 0.1953125 C41.00623672 0.2021405 41.8757547 0.20896851 42.7716217 0.21600342 C45.00366211 0.35644531 45.00366211 0.35644531 48.00366211 1.35644531 C48.49866211 2.84144531 48.49866211 2.84144531 49.00366211 4.35644531 C48.23489746 4.19635986 47.46613281 4.03627441 46.67407227 3.87133789 C41.86343937 3.19649256 37.12959472 3.15457155 32.27709961 3.11816406 C31.25186188 3.11009232 30.22662415 3.10202057 29.1703186 3.09370422 C27.01029121 3.07991681 24.85024252 3.06917095 22.69018555 3.0612793 C20.47885773 3.04970422 18.26755901 3.02916653 16.05639648 2.99975586 C12.85893805 2.95724657 9.66230485 2.94093884 6.46459961 2.93066406 C5.47599945 2.91315598 4.48739929 2.89564789 3.46884155 2.87760925 C-1.92519958 2.7771524 -1.92519958 2.7771524 -6.47827148 5.33227539 C-7.22971436 6.3342395 -7.22971436 6.3342395 -7.99633789 7.35644531 C-8.90383789 7.62457031 -9.81133789 7.89269531 -10.74633789 8.16894531 C-14.79439097 9.64804163 -17.16801315 11.95745476 -20.26196289 14.89550781 C-21.99633789 16.35644531 -21.99633789 16.35644531 -23.99633789 16.35644531 C-21.08282465 9.74391282 -15.3626009 6.32736805 -8.99633789 3.35644531 C-8.38137955 2.84172668 -7.7664212 2.32700806 -7.13282776 1.79669189 C-4.5362107 0.04626523 -3.10740836 -0.01301653 0 0 Z " fill="#2317FF" transform="translate(96.996337890625,65.6435546875)"/>
<path d="M0 0 C0.61871338 1.79125977 0.61871338 1.79125977 1 4 C0.37319336 5.10214844 -0.25361328 6.20429687 -0.89941406 7.33984375 C-4.13148001 13.37915209 -3.60526945 19.87895663 -3.609375 26.5625 C-3.62437801 27.96356091 -3.64110958 29.36460426 -3.65948486 30.765625 C-3.70293366 34.42833325 -3.72310693 38.09080302 -3.73822021 41.75372314 C-3.75787314 45.50132213 -3.7998335 49.2486666 -3.83984375 52.99609375 C-3.9149018 60.33066036 -3.96534008 67.66511932 -4 75 C-4.33 75 -4.66 75 -5 75 C-5.85790531 71.27852712 -6.13607368 67.81969559 -6.16113281 64.00390625 C-6.17074036 62.81917725 -6.1803479 61.63444824 -6.19024658 60.41381836 C-6.19449646 59.1428833 -6.19874634 57.87194824 -6.203125 56.5625 C-6.20882507 55.24967041 -6.21452515 53.93684082 -6.22039795 52.58422852 C-6.23087499 49.8103802 -6.23673992 47.0365606 -6.24023438 44.26269531 C-6.24572807 40.71519011 -6.26978812 37.16806696 -6.29820633 33.62068176 C-6.32134061 30.22629515 -6.32328172 26.83196136 -6.328125 23.4375 C-6.3404718 22.16656494 -6.3528186 20.89562988 -6.36553955 19.58618164 C-6.3610379 17.80908813 -6.3610379 17.80908813 -6.35644531 15.99609375 C-6.36009094 14.95638428 -6.36373657 13.9166748 -6.36749268 12.84545898 C-5.94163071 9.54805241 -4.8706951 7.71888683 -3 5 C-2.443125 4.071875 -1.88625 3.14375 -1.3125 2.1875 C-0.879375 1.465625 -0.44625 0.74375 0 0 Z " fill="#7068FF" transform="translate(74,85)"/>
<path d="M0 0 C3.21999551 4.82999327 2.33303706 10.43630129 2.31567383 16.08642578 C2.31253122 18.22871604 2.33591484 20.36960094 2.36132812 22.51171875 C2.36360318 23.88801911 2.36430366 25.26432314 2.36328125 26.640625 C2.36626221 27.88360352 2.36924316 29.12658203 2.37231445 30.40722656 C1.78683658 36.05699208 -0.57248142 40.62910022 -3.5625 45.4375 C-3.97628906 46.11683594 -4.39007813 46.79617187 -4.81640625 47.49609375 C-5.20699219 47.99238281 -5.59757813 48.48867187 -6 49 C-6.66 49 -7.32 49 -8 49 C-8.2475 49.5775 -8.495 50.155 -8.75 50.75 C-10.16683317 53.3002997 -11.87627537 55.01785701 -14 57 C-14.66 56.67 -15.32 56.34 -16 56 C-14.90033225 54.70450101 -13.79508199 53.41373929 -12.6875 52.125 C-12.07261719 51.40570313 -11.45773438 50.68640625 -10.82421875 49.9453125 C-9 48 -9 48 -6 46 C-5.27633965 43.94820292 -5.27633965 43.94820292 -4.9375 41.625 C-4.51308631 39.20786296 -4.13990798 37.26884279 -3.00390625 35.0859375 C-0.82790118 30.56458845 -0.84823255 25.44697664 -0.68359375 20.5078125 C-0.64169922 19.30898437 -0.59980469 18.11015625 -0.55664062 16.875 C-0.51732422 15.6375 -0.47800781 14.4 -0.4375 13.125 C-0.39431641 11.86429688 -0.35113281 10.60359375 -0.30664062 9.3046875 C-0.20090898 6.20322577 -0.09881429 3.10168855 0 0 Z " fill="#A7A3FF" transform="translate(185,123)"/>
<path d="M0 0 C1.20079193 0.00022659 1.20079193 0.00022659 2.42584229 0.00045776 C3.70730133 0.01594162 3.70730133 0.01594162 5.01464844 0.03173828 C5.89683044 0.03456818 6.77901245 0.03739807 7.68792725 0.04031372 C10.50009842 0.05149117 13.31194884 0.07659127 16.12402344 0.10205078 C18.032873 0.11208373 19.94172756 0.12120903 21.85058594 0.12939453 C26.52518833 0.15142254 31.19955153 0.18593567 35.87402344 0.22705078 C35.87402344 0.88705078 35.87402344 1.54705078 35.87402344 2.22705078 C34.82013428 2.2416333 33.76624512 2.25621582 32.68041992 2.27124023 C28.74584131 2.32950023 24.8118185 2.40672982 20.87768555 2.48950195 C19.17953558 2.52262161 17.48127895 2.55069339 15.78295898 2.57348633 C13.33238557 2.60727247 10.88277813 2.65959717 8.43261719 2.71533203 C7.68129013 2.72172195 6.92996307 2.72811188 6.15586853 2.73469543 C1.02798536 2.87562788 -2.50592293 3.99937818 -7.12597656 6.22705078 C-8.64578125 6.65630859 -8.64578125 6.65630859 -10.19628906 7.09423828 C-13.91191215 8.53094588 -16.1241106 10.61551974 -19.00097656 13.35205078 C-19.49855469 13.81998047 -19.99613281 14.28791016 -20.50878906 14.77001953 C-21.72262215 15.91382379 -22.92547014 17.06926701 -24.12597656 18.22705078 C-24.12597656 15.22705078 -24.12597656 15.22705078 -21.89550781 12.85205078 C-20.9196875 11.98580078 -19.94386719 11.11955078 -18.93847656 10.22705078 C-17.97554688 9.36080078 -17.01261719 8.49455078 -16.02050781 7.60205078 C-13.45997561 5.50110128 -11.02005324 3.81855612 -8.12597656 2.22705078 C-7.50184875 1.87466339 -6.87772095 1.522276 -6.23468018 1.15921021 C-3.95453276 0.15126348 -2.47693379 -0.0156768 0 0 Z " fill="#9A95FF" transform="translate(100.1259765625,68.77294921875)"/>
<path d="M0 0 C0 0.99 0 1.98 0 3 C-1.93359375 4.7265625 -1.93359375 4.7265625 -4.4375 6.625 C-7.86214278 9.4526047 -7.86214278 9.4526047 -9.71484375 13.34765625 C-9.8195851 14.87790178 -9.88376936 16.41159899 -9.90234375 17.9453125 C-10.0426384 20.8971119 -11.17304788 22.73457937 -13 25 C-13.66 25 -14.32 25 -15 25 C-14.88180208 31.40474488 -14.75698746 37.80933693 -14.62768555 44.21386719 C-14.58451322 46.39027013 -14.54282654 48.5667031 -14.50268555 50.74316406 C-14.4445518 53.88095119 -14.38098397 57.01858967 -14.31640625 60.15625 C-14.29969376 61.12115356 -14.28298126 62.08605713 -14.26576233 63.0802002 C-14.14917851 68.45983248 -13.76993473 73.67347648 -13 79 C-13.99 79 -14.98 79 -16 79 C-16.12785092 71.42368807 -16.21478817 63.84765913 -16.2746582 56.27050781 C-16.29964361 53.69846196 -16.33364367 51.12648594 -16.37719727 48.5546875 C-16.91483437 15.9675537 -16.91483437 15.9675537 -7.4375 5.8125 C-6.31758375 4.84418813 -5.17429619 3.90159233 -4 3 C-3.195625 2.360625 -2.39125 1.72125 -1.5625 1.0625 C-1.046875 0.711875 -0.53125 0.36125 0 0 Z " fill="#E1E0FF" transform="translate(87,78)"/>
<path d="M0 0 C0.495 0.268125 0.99 0.53625 1.5 0.8125 C4.36637383 2.17402757 7.29199242 3.19429797 10.29296875 4.21875 C12 5 12 5 13 7 C16.20079729 9.06811888 18.82815325 9.26141998 22.59130859 9.29052734 C23.71282318 9.30328705 24.83433777 9.31604675 25.98983765 9.32919312 C27.80084457 9.33253159 27.80084457 9.33253159 29.6484375 9.3359375 C30.89372223 9.3425943 32.13900696 9.3492511 33.42202759 9.35610962 C36.05656223 9.36623618 38.69068419 9.37179182 41.32519531 9.37060547 C44.02175668 9.37044274 46.71764012 9.38435399 49.4140625 9.41162109 C53.30489873 9.44826424 57.19494594 9.45807839 61.0859375 9.4609375 C62.28922699 9.47530853 63.49251648 9.48967957 64.73226929 9.50448608 C71.2543427 9.46890235 74.95339605 9.18239706 80 5 C83.875 4.25 83.875 4.25 87 4 C85.26271634 7.47456733 81.70510634 8.40849873 78.2635498 9.91723633 C72.63322855 11.78523519 67.1486173 11.67334371 61.265625 11.59375 C59.98822449 11.59379028 58.71082397 11.59383057 57.39471436 11.59387207 C54.71131874 11.588539 52.03015838 11.5737813 49.34716797 11.54199219 C45.92544841 11.50215605 42.50482786 11.49797374 39.08292007 11.50545502 C35.78956343 11.50927564 32.49641263 11.48843754 29.203125 11.46875 C27.98320862 11.46854858 26.76329224 11.46834717 25.50640869 11.46813965 C19.20456059 11.38057857 14.57707281 10.98491221 9 8 C8.113125 7.731875 7.22625 7.46375 6.3125 7.1875 C3.06075991 5.51768752 1.81814802 3.09758552 0 0 Z " fill="#908AFF" transform="translate(82,176)"/>
<path d="M0 0 C0.78532608 -0.00570007 1.57065216 -0.01140015 2.379776 -0.01727295 C4.03987281 -0.0267124 5.69998826 -0.03325274 7.36010742 -0.03710938 C9.89730476 -0.04682578 12.43369547 -0.07786244 14.97070312 -0.109375 C16.58463061 -0.11590438 18.19856388 -0.1211551 19.8125 -0.125 C20.94859962 -0.1435202 20.94859962 -0.1435202 22.10765076 -0.16241455 C26.40518479 -0.14426878 28.81323928 0.23692699 31.97265625 3.203125 C33.92217929 3.79376873 33.92217929 3.79376873 35.91015625 4.078125 C40.11719237 5.01389565 42.28715963 6.76233245 44.97265625 10.203125 C44.97265625 11.193125 44.97265625 12.183125 44.97265625 13.203125 C42.53515625 11.953125 42.53515625 11.953125 39.97265625 10.203125 C39.3125 8.09375 39.3125 8.09375 38.97265625 6.203125 C37.05453125 6.0484375 37.05453125 6.0484375 35.09765625 5.890625 C31.68063012 5.52742771 28.75142015 4.84552696 25.5234375 3.6875 C19.06061887 1.69741743 12.75015946 1.7256331 6.03515625 1.765625 C4.81763672 1.74564453 3.60011719 1.72566406 2.34570312 1.70507812 C1.18232422 1.70572266 0.01894531 1.70636719 -1.1796875 1.70703125 C-2.23148193 1.70517822 -3.28327637 1.7033252 -4.36694336 1.70141602 C-7.16360763 1.94184211 -7.16360763 1.94184211 -8.73779297 4.19604492 C-9.16334473 4.85838135 -9.58889648 5.52071777 -10.02734375 6.203125 C-12.5078125 6.8125 -12.5078125 6.8125 -15.21484375 6.953125 C-16.11589844 7.00984375 -17.01695313 7.0665625 -17.9453125 7.125 C-18.63238281 7.15078125 -19.31945312 7.1765625 -20.02734375 7.203125 C-18.76383257 4.67610264 -17.66733628 4.35205913 -15.15234375 3.140625 C-14.45367187 2.79902344 -13.755 2.45742187 -13.03515625 2.10546875 C-8.64667319 0.13321275 -4.72523649 0.0264433 0 0 Z " fill="#D9D7FF" transform="translate(108.02734375,70.796875)"/>
<path d="M0 0 C1.13917374 0.00666183 1.13917374 0.00666183 2.30136108 0.01345825 C3.59247299 0.01368484 3.59247299 0.01368484 4.90966797 0.01391602 C5.83991791 0.02423859 6.77016785 0.03456116 7.72860718 0.04519653 C8.68020721 0.04802643 9.63180725 0.05085632 10.61224365 0.05377197 C13.6589706 0.06498914 16.70540621 0.09009641 19.75204468 0.11550903 C21.81454044 0.12553685 23.8770408 0.13466304 25.93954468 0.14285278 C31.00215735 0.16493349 36.06455158 0.19947374 41.12704468 0.24050903 C41.12704468 0.57050903 41.12704468 0.90050903 41.12704468 1.24050903 C27.26704468 1.24050903 13.40704468 1.24050903 -0.87295532 1.24050903 C-0.87295532 3.88050903 -0.87295532 6.52050903 -0.87295532 9.24050903 C22.39204468 9.73550903 22.39204468 9.73550903 46.12704468 10.24050903 C46.12704468 10.57050903 46.12704468 10.90050903 46.12704468 11.24050903 C29.95704468 11.24050903 13.78704468 11.24050903 -2.87295532 11.24050903 C-3.20295532 8.27050903 -3.53295532 5.30050903 -3.87295532 2.24050903 C-1.87295532 0.24050903 -1.87295532 0.24050903 0 0 Z " fill="#7971FF" transform="translate(105.87295532226563,143.75949096679688)"/>
<path d="M0 0 C15.84 0 31.68 0 48 0 C48 2.64 48 5.28 48 8 C47 9 47 9 45.17137146 9.12025452 C44.37417191 9.11803391 43.57697235 9.11581329 42.75561523 9.11352539 C41.85475693 9.11344986 40.95389862 9.11337433 40.02574158 9.11329651 C39.04658279 9.10813522 38.06742401 9.10297394 37.05859375 9.09765625 C36.06118668 9.0962413 35.0637796 9.09482635 34.03614807 9.09336853 C30.83656876 9.08775114 27.63705831 9.07519571 24.4375 9.0625 C22.27408955 9.05748724 20.11067801 9.05292395 17.94726562 9.04882812 C12.63148675 9.03777607 7.31574829 9.02102104 2 9 C2 8.67 2 8.34 2 8 C16.52 7.67 31.04 7.34 46 7 C45.505 4.525 45.505 4.525 45 2 C30.15 1.67 15.3 1.34 0 1 C0 0.67 0 0.34 0 0 Z " fill="#4B41FF" transform="translate(105,145)"/>
<path d="M0 0 C0.77261673 0.00424484 1.54523346 0.00848969 2.34126282 0.01286316 C4.80729117 0.02964692 7.27250021 0.06729728 9.73828125 0.10546875 C11.41079548 0.12051604 13.08332253 0.13420437 14.75585938 0.14648438 C18.85448203 0.17954929 22.95249276 0.23132847 27.05078125 0.29296875 C27.54578125 1.28296875 27.54578125 1.28296875 28.05078125 2.29296875 C26.46825562 2.28511353 26.46825562 2.28511353 24.85375977 2.27709961 C20.95321495 2.25904974 17.05267385 2.2475368 13.15209961 2.23803711 C11.46133809 2.23299685 9.77058096 2.2261647 8.07983398 2.2175293 C5.65477418 2.20545018 3.22977181 2.19973752 0.8046875 2.1953125 C0.04426651 2.19015121 -0.71615448 2.18498993 -1.49961853 2.17967224 C-3.31654445 2.17947637 -5.13335002 2.23099598 -6.94921875 2.29296875 C-9.58445013 4.92820013 -8.57839028 9.58468409 -8.94921875 13.29296875 C2.93078125 13.62296875 14.81078125 13.95296875 27.05078125 14.29296875 C27.05078125 14.62296875 27.05078125 14.95296875 27.05078125 15.29296875 C21.79972683 15.31761803 16.5487058 15.33580443 11.29760742 15.34790039 C9.50984104 15.35294093 7.7220788 15.35977329 5.93432617 15.3684082 C3.37026957 15.38048605 0.80626728 15.38619969 -1.7578125 15.390625 C-2.96406532 15.39836693 -2.96406532 15.39836693 -4.19468689 15.40626526 C-6.1132359 15.4064609 -8.03167243 15.35498858 -9.94921875 15.29296875 C-11.68141803 13.56076947 -11.16213636 11.27270067 -11.19921875 8.91796875 C-11.23789063 7.45230469 -11.23789063 7.45230469 -11.27734375 5.95703125 C-10.94921875 3.29296875 -10.94921875 3.29296875 -9.92553711 1.64477539 C-6.83912037 -0.46634129 -3.60488475 -0.07441359 0 0 Z " fill="#D5D3FF" transform="translate(109.94921875,98.70703125)"/>
<path d="M0 0 C4.40765332 3.81996621 5.7925175 7.50428192 6.2734375 13.2890625 C6.34129963 15.51807237 6.40377571 17.74725256 6.4609375 19.9765625 C7.11331923 23.63557306 8.02340711 24.82339892 11 27 C13.17637752 27.57869715 13.17637752 27.57869715 15.4375 27.5625 C19.35563964 27.82112308 21.78139231 28.61200074 25 31 C24.67 32.32 24.34 33.64 24 35 C23.38125 34.525625 22.7625 34.05125 22.125 33.5625 C18.92568449 31.96284225 17.41710728 31.84765515 13.9375 31.75 C9.92410688 31.41555057 9.32360911 31.34728782 6.4375 28.25 C4.42461617 23.76043423 4.56453725 18.9413319 4.34765625 14.09765625 C3.87001672 9.84183437 2.33084131 7.53385619 0 4 C0 2.68 0 1.36 0 0 Z " fill="#8079FF" transform="translate(160,88)"/>
<path d="M0 0 C0.98746216 -0.00143509 0.98746216 -0.00143509 1.99487305 -0.00289917 C3.38688248 -0.00357975 4.7788951 -0.00173396 6.17089844 0.00244141 C8.30410883 0.00779146 10.43710867 0.00249238 12.5703125 -0.00390625 C13.92187547 -0.00324545 15.2734383 -0.00196424 16.625 0 C18.47544922 0.00169189 18.47544922 0.00169189 20.36328125 0.00341797 C23.3125 0.1328125 23.3125 0.1328125 25.3125 1.1328125 C25.35491723 3.46576025 25.35342937 5.79983817 25.3125 8.1328125 C24.3125 9.1328125 24.3125 9.1328125 21.26147461 9.24633789 C19.91258729 9.24617884 18.56369386 9.24048862 17.21484375 9.23046875 C16.15155602 9.22834633 16.15155602 9.22834633 15.06678772 9.22618103 C12.79448288 9.22056693 10.52227525 9.20801213 8.25 9.1953125 C6.71289204 9.19029931 5.17578255 9.18573609 3.63867188 9.18164062 C-0.13675642 9.17059292 -3.91211171 9.15331891 -7.6875 9.1328125 C-9.04189668 6.42401915 -8.75251451 4.12347982 -8.6875 1.1328125 C-5.78524449 -0.31831526 -3.23838766 0.00296091 0 0 Z M-6.6875 3.1328125 C-6.52083333 5.21614583 -6.52083333 5.21614583 -5.6875 7.1328125 C-2.98653923 8.48329289 -0.86023483 8.26244827 2.16015625 8.265625 C3.90329102 8.26755859 3.90329102 8.26755859 5.68164062 8.26953125 C6.90044922 8.26566406 8.11925781 8.26179688 9.375 8.2578125 C10.59767578 8.26167969 11.82035156 8.26554687 13.08007812 8.26953125 C14.24087891 8.26824219 15.40167969 8.26695313 16.59765625 8.265625 C17.66894775 8.26449707 18.74023926 8.26336914 19.84399414 8.26220703 C22.25656351 8.41178996 22.25656351 8.41178996 23.3125 7.1328125 C23.47916667 4.6328125 23.47916667 4.6328125 23.3125 2.1328125 C20.61178847 -0.56789903 12.51579036 0.94715968 8.875 0.9453125 C7.60849609 0.93306641 6.34199219 0.92082031 5.03710938 0.90820312 C3.82990234 0.90626953 2.62269531 0.90433594 1.37890625 0.90234375 C0.26459229 0.89823486 -0.84972168 0.89412598 -1.99780273 0.88989258 C-4.83871961 0.85694078 -4.83871961 0.85694078 -6.6875 3.1328125 Z " fill="#4B41FF" transform="translate(111.6875,101.8671875)"/>
<path d="M0 0 C0.99 0.495 0.99 0.495 2 1 C0.8553125 1.61875 0.8553125 1.61875 -0.3125 2.25 C-3.06584455 3.75939723 -3.06584455 3.75939723 -4.2278595 6.08099365 C-6 8 -6 8 -9.13212585 8.48101807 C-10.42230118 8.47213562 -11.7124765 8.46325317 -13.04174805 8.45410156 C-14.11042114 8.45497772 -14.11042114 8.45497772 -15.20068359 8.45587158 C-17.55485819 8.45308548 -19.90776547 8.42197113 -22.26171875 8.390625 C-23.89410205 8.38316442 -25.52649431 8.37747062 -27.15888977 8.37347412 C-31.45485167 8.35820321 -35.7502724 8.31890933 -40.04602051 8.2746582 C-44.42969441 8.23373662 -48.81345577 8.21546979 -53.19726562 8.1953125 C-61.7984254 8.15241605 -70.39914538 8.08414766 -79 8 C-79 7.67 -79 7.34 -79 7 C-55.57 7 -32.14 7 -8 7 C-8 6.34 -8 5.68 -8 5 C-5.35153397 2.63785462 -3.38483604 1.12827868 0 0 Z " fill="#180CFF" transform="translate(171,182)"/>
<path d="M0 0 C2.97 0.495 2.97 0.495 6 1 C6 1.66 6 2.32 6 3 C7.3921875 3.0928125 7.3921875 3.0928125 8.8125 3.1875 C12 4 12 4 13.4375 6.0625 C14.2109375 7.5165625 14.2109375 7.5165625 15 9 C16.14146234 10.35497329 17.31082897 11.68669838 18.5 13 C24.31725974 19.52757777 27.13063921 25.12203738 27.3125 33.9375 C27.59725725 39.9000748 27.59725725 39.9000748 30.5625 44.875 C31.7690625 45.926875 31.7690625 45.926875 33 47 C30.09978271 45.6999026 27.94804683 44.53737192 26 42 C25.59375 39.109375 25.59375 39.109375 25.5 35.75 C25.18628659 30.30224605 24.61495379 26.76295154 22 22 C21.649375 21.35675781 21.29875 20.71351562 20.9375 20.05078125 C17.8188689 14.66498741 13.68941192 8.84470596 8 6 C8 5.34 8 4.68 8 4 C7.4225 3.896875 6.845 3.79375 6.25 3.6875 C3.67950842 2.90207202 2.06342716 1.69495803 0 0 Z " fill="#4A41FF" transform="translate(140,69)"/>
<path d="M0 0 C0.33 0 0.66 0 1 0 C1.07426628 5.74744858 1.12865726 11.4946166 1.16479492 17.24243164 C1.17986301 19.19690823 1.20032124 21.15135112 1.22631836 23.10571289 C1.26278865 25.91821623 1.27974622 28.73027174 1.29296875 31.54296875 C1.30845261 32.41398727 1.32393646 33.2850058 1.33988953 34.18241882 C1.34123372 39.04962444 0.96934396 41.95436786 -2 46 C-2.391875 47.11375 -2.78375 48.2275 -3.1875 49.375 C-5.10801801 54.12410703 -9.05851508 56.9198372 -13 60 C-13.66 59.67 -14.32 59.34 -15 59 C-14.06409496 57.8944811 -13.12620142 56.79064547 -12.1875 55.6875 C-11.40439453 54.76517578 -11.40439453 54.76517578 -10.60546875 53.82421875 C-9.5758074 52.65426291 -8.50857388 51.51576548 -7.3984375 50.421875 C-5.5031656 48.49483876 -4.3191329 46.35149777 -3 44 C-2.6469278 43.3722467 -2.29385559 42.74449341 -1.93008423 42.09771729 C-0.93311576 39.8491489 -0.72758194 38.31931537 -0.68115234 35.87402344 C-0.66128265 35.07349548 -0.64141296 34.27296753 -0.62094116 33.44818115 C-0.60938995 32.59387512 -0.59783875 31.73956909 -0.5859375 30.859375 C-0.56657135 29.97719299 -0.5472052 29.09501099 -0.5272522 28.18609619 C-0.46757152 25.37416184 -0.42111717 22.5621863 -0.375 19.75 C-0.33680962 17.84112819 -0.29775727 15.93227341 -0.2578125 14.0234375 C-0.16187942 9.34909704 -0.07780584 4.67467591 0 0 Z " fill="#2B20FF" transform="translate(188,122)"/>
<path d="M0 0 C1.21042969 -0.00128906 2.42085937 -0.00257812 3.66796875 -0.00390625 C4.94285156 -0.00003906 6.21773437 0.00382812 7.53125 0.0078125 C9.44357422 0.00201172 9.44357422 0.00201172 11.39453125 -0.00390625 C13.21017578 -0.00197266 13.21017578 -0.00197266 15.0625 0 C16.18205078 0.00112793 17.30160156 0.00225586 18.45507812 0.00341797 C21.03125 0.1328125 21.03125 0.1328125 22.03125 1.1328125 C22.15625 3.6328125 22.15625 3.6328125 22.03125 6.1328125 C19.39254792 8.77151458 11.70941707 7.31843252 8.15625 7.3203125 C6.34060547 7.33868164 6.34060547 7.33868164 4.48828125 7.35742188 C3.32941406 7.35935547 2.17054687 7.36128906 0.9765625 7.36328125 C-0.09062012 7.36739014 -1.15780273 7.37149902 -2.25732422 7.37573242 C-4.96875 7.1328125 -4.96875 7.1328125 -7.96875 5.1328125 C-6.72827495 -0.36071985 -5.5884182 0.00563024 0 0 Z M-4.96875 1.1328125 C-5.55945014 3.07884524 -5.55945014 3.07884524 -5.96875 5.1328125 C-4.28852 6.8130425 -2.21099072 6.26288054 0.08984375 6.265625 C1.62801758 6.26755859 1.62801758 6.26755859 3.19726562 6.26953125 C4.27685547 6.26566406 5.35644531 6.26179688 6.46875 6.2578125 C7.54447266 6.26167969 8.62019531 6.26554687 9.72851562 6.26953125 C10.75525391 6.26824219 11.78199219 6.26695313 12.83984375 6.265625 C13.78657959 6.26449707 14.73331543 6.26336914 15.70874023 6.26220703 C18.05659473 6.28545966 18.05659473 6.28545966 20.03125 5.1328125 C20.03125 4.1428125 20.03125 3.1528125 20.03125 2.1328125 C17.47401771 0.85419635 15.66387898 1.01944641 12.8046875 1.03515625 C11.2578125 1.03999023 11.2578125 1.03999023 9.6796875 1.04492188 C8.59945312 1.05330078 7.51921875 1.06167969 6.40625 1.0703125 C5.31828125 1.07482422 4.2303125 1.07933594 3.109375 1.08398438 C0.41661211 1.09579474 -2.27604188 1.11226472 -4.96875 1.1328125 Z " fill="#2317FF" transform="translate(112.96875,102.8671875)"/>
<path d="M0 0 C4.39750672 0.50740462 6.86948922 3.08293314 10 6 C10 6.66 10 7.32 10 8 C11.2684375 8.1546875 11.2684375 8.1546875 12.5625 8.3125 C16 9 16 9 19.0625 10.5 C24.33544645 12.94559734 30.28551048 12.7507967 36 13 C36 13.33 36 13.66 36 14 C33.08277452 14.08103404 30.16780484 14.14051081 27.25 14.1875 C26.425 14.21263672 25.6 14.23777344 24.75 14.26367188 C20.15009342 14.31931591 17.45809844 14.33002072 14 11 C12.60134004 10.23686254 11.18453265 9.50585745 9.75 8.8125 C8.69039062 8.29623047 8.69039062 8.29623047 7.609375 7.76953125 C7.07828125 7.51558594 6.5471875 7.26164063 6 7 C6 6.34 6 5.68 6 5 C4.68 4.34 3.36 3.68 2 3 C2 2.34 2 1.68 2 1 C1.34 0.67 0.68 0.34 0 0 Z " fill="#3025FF" transform="translate(74,175)"/>
<path d="M0 0 C4.2509777 1.98441658 7.8728367 4.47655706 11 8 C11.4375 10.875 11.4375 10.875 11 13 C11.99 13 12.98 13 14 13 C16.10209857 16.15314785 16.2434761 16.86103081 16.1953125 20.44921875 C16.18886719 21.29677734 16.18242187 22.14433594 16.17578125 23.01757812 C16.15902344 23.89865234 16.14226562 24.77972656 16.125 25.6875 C16.11597656 26.58017578 16.10695312 27.47285156 16.09765625 28.39257812 C16.07409748 30.59532314 16.04120329 32.79752588 16 35 C15.67 35 15.34 35 15 35 C14.95101562 34.04738281 14.90203125 33.09476563 14.8515625 32.11328125 C14.73941406 30.23189453 14.73941406 30.23189453 14.625 28.3125 C14.55539063 27.07113281 14.48578125 25.82976562 14.4140625 24.55078125 C13.45913285 16.36180904 8.99744191 10.81007557 3.62109375 4.8671875 C2 3 2 3 0 0 Z " fill="#281DFF" transform="translate(152,75)"/>
<path d="M0 0 C10.82954217 0.90246185 16.76792303 6.16524995 24 14 C23.67 14.66 23.34 15.32 23 16 C22.54109375 15.60167969 22.0821875 15.20335938 21.609375 14.79296875 C17.68325173 11.39984291 17.68325173 11.39984291 13.5625 8.25 C13.046875 7.8375 12.53125 7.425 12 7 C12 6.34 12 5.68 12 5 C10.7625 4.9175 9.525 4.835 8.25 4.75 C5.01117036 4.36524541 4.12092117 4.09975997 1.5 1.9375 C1.005 1.298125 0.51 0.65875 0 0 Z " fill="#928CFF" transform="translate(136,71)"/>
<path d="M0 0 C0.33 0 0.66 0 1 0 C1.20625 1.299375 1.4125 2.59875 1.625 3.9375 C3.60527681 12.75873306 9.50700467 19.02567589 16 25 C13 25 13 25 11.0625 23.125 C10.381875 22.42375 9.70125 21.7225 9 21 C8.319375 20.71125 7.63875 20.4225 6.9375 20.125 C4.06175091 18.4552102 3.37888929 15.94580893 2 13 C1.34 12.67 0.68 12.34 0 12 C0 8.04 0 4.08 0 0 Z " fill="#392EFF" transform="translate(68,155)"/>
<path d="M0 0 C0 0.33 0 0.66 0 1 C-0.556875 1.14695312 -1.11375 1.29390625 -1.6875 1.4453125 C-11.23763722 4.25227851 -17.71758771 10.45357618 -25 17 C-25 12.3907268 -22.17653026 10.31563669 -19.16796875 7.01953125 C-16.60228753 4.62951829 -14.39250086 3.78895369 -11 3 C-10.54625 2.46375 -10.0925 1.9275 -9.625 1.375 C-6.8256303 -0.99369744 -3.5457236 -0.17437985 0 0 Z " fill="#564DFF" transform="translate(101,68)"/>
<path d="M0 0 C2.35510648 2.13556266 3.61480845 4.03236815 4.875 6.9375 C6.66492687 10.6881483 8.65676703 12.49257527 12 15 C13.39355764 16.95851344 14.74282547 18.95127113 16 21 C8.68780094 17.78459104 3.29008625 11.12852022 0 4 C0 2.68 0 1.36 0 0 Z " fill="#776FFF" transform="translate(70,160)"/>
<path d="M0 0 C0.33 0 0.66 0 1 0 C1.33 2.31 1.66 4.62 2 7 C2.66 7 3.32 7 4 7 C4.27263672 8.03060547 4.27263672 8.03060547 4.55078125 9.08203125 C4.80214844 9.98308594 5.05351563 10.88414062 5.3125 11.8125 C5.55613281 12.70582031 5.79976563 13.59914062 6.05078125 14.51953125 C7.0200819 17.05247738 7.95009604 18.2716496 10 20 C9.67 20.66 9.34 21.32 9 22 C4.14916107 18.04746457 0.49487761 11.8001713 -0.31640625 5.5703125 C-0.3125 3.375 -0.3125 3.375 0 0 Z " fill="#A6A2FF" transform="translate(70,152)"/>
<path d="M0 0 C2.475 0.99 2.475 0.99 5 2 C5 2.99 5 3.98 5 5 C6.258125 5.103125 7.51625 5.20625 8.8125 5.3125 C11.60499657 5.64858808 12.74433121 5.80025876 15 7.5625 C15.33 8.036875 15.66 8.51125 16 9 C5.09615385 7.44230769 5.09615385 7.44230769 1.625 2.875 C1.08875 1.92625 0.5525 0.9775 0 0 Z " fill="#E0DEFF" transform="translate(82,173)"/>
<path d="M0 0 C4.39750672 0.50740462 6.86948922 3.08293314 10 6 C10 6.66 10 7.32 10 8 C11.65 8.33 13.3 8.66 15 9 C14.67 9.66 14.34 10.32 14 11 C11.36 9.68 8.72 8.36 6 7 C6 6.34 6 5.68 6 5 C4.68 4.34 3.36 3.68 2 3 C2 2.34 2 1.68 2 1 C1.34 0.67 0.68 0.34 0 0 Z " fill="#2419FF" transform="translate(74,175)"/>
<path d="M0 0 C2.49653745 1.29131247 3.78937805 2.48821725 4.86328125 5.09765625 C5.36255072 6.67227536 5.83875677 8.25443565 6.2890625 9.84375 C6.97826603 12.2558532 6.97826603 12.2558532 9 15 C8.625 17.1875 8.625 17.1875 8 19 C7.15415002 17.44424022 6.32381601 15.8800388 5.5 14.3125 C5.0359375 13.44238281 4.571875 12.57226562 4.09375 11.67578125 C2.95181208 8.88211171 2.78495792 6.98370887 3 4 C2.01 3.67 1.02 3.34 0 3 C0 2.01 0 1.02 0 0 Z " fill="#E3E1FF" transform="translate(154,84)"/>
<path d="M0 0 C0 0.33 0 0.66 0 1 C-1.3921875 1.433125 -1.3921875 1.433125 -2.8125 1.875 C-6.09791667 2.8875 -6.09791667 2.8875 -9 5 C-11.26171875 5.1953125 -11.26171875 5.1953125 -13.6875 5.125 C-14.89986328 5.09792969 -14.89986328 5.09792969 -16.13671875 5.0703125 C-17.05904297 5.03550781 -17.05904297 5.03550781 -18 5 C-18 4.67 -18 4.34 -18 4 C-15.69 4 -13.38 4 -11 4 C-11 3.34 -11 2.68 -11 2 C-7.17010894 0.19769832 -4.21878192 -0.19622241 0 0 Z " fill="#D1CEFF" transform="translate(167,180)"/>
<path d="M0 0 C2.45873768 0.14058476 4.91685175 0.28722999 7.375 0.4375 C8.07367188 0.47681641 8.77234375 0.51613281 9.4921875 0.55664062 C14.7734375 0.88671875 14.7734375 0.88671875 17 2 C16.67 3.32 16.34 4.64 16 6 C15.38125 5.525625 14.7625 5.05125 14.125 4.5625 C10.36136838 2.68068419 7.26644679 2.51152773 3.109375 2.30859375 C2.06523437 2.15583984 2.06523437 2.15583984 1 2 C0.67 1.34 0.34 0.68 0 0 Z " fill="#AEAAFF" transform="translate(168,117)"/>
<path d="M0 0 C-1.40751221 0.86916887 -2.8264521 1.71985149 -4.25 2.5625 C-5.03890625 3.03816406 -5.8278125 3.51382813 -6.640625 4.00390625 C-9.30844625 5.13022151 -10.34501768 5.0169313 -13 4 C-4.4 -2.2 -4.4 -2.2 0 0 Z " fill="#9F99FF" transform="translate(169,181)"/>
<path d="M0 0 C-2 3 -2 3 -4.3828125 3.51171875 C-5.28773437 3.56972656 -6.19265625 3.62773438 -7.125 3.6875 C-8.49011719 3.78611328 -8.49011719 3.78611328 -9.8828125 3.88671875 C-10.93082031 3.94279297 -10.93082031 3.94279297 -12 4 C-11 2 -11 2 -8.25 0.875 C-5.29813104 0.08026605 -3.02780163 -0.17810598 0 0 Z " fill="#E8E7FF" transform="translate(100,74)"/>
<path d="M0 0 C2.875 -0.125 2.875 -0.125 6 0 C6.66 0.66 7.32 1.32 8 2 C7.625 4.125 7.625 4.125 7 6 C6.67 5.34 6.34 4.68 6 4 C4.02477154 2.95191959 2.02518491 1.9479589 0 1 C0 0.67 0 0.34 0 0 Z " fill="#443AFF" transform="translate(180,116)"/>
<path d="M0 0 C0.66 0.33 1.32 0.66 2 1 C0.88200014 2.33920838 -0.24461897 3.67122556 -1.375 5 C-2.00148438 5.7425 -2.62796875 6.485 -3.2734375 7.25 C-4.12808594 8.11625 -4.12808594 8.11625 -5 9 C-5.66 9 -6.32 9 -7 9 C-5.44499019 5.18315774 -2.96404505 2.80804268 0 0 Z " fill="#1B0FFF" transform="translate(80,73)"/>
<path d="M0 0 C2.33333823 2.12121657 3.9148886 4.01594365 5 7 C4.625 9.25 4.625 9.25 4 11 C0 4.5 0 4.5 0 0 Z " fill="#6E66FF" transform="translate(70,160)"/>
<path d="M0 0 C0.33 0 0.66 0 1 0 C1.33730842 1.43657245 1.66969591 2.87430093 2 4.3125 C2.185625 5.11300781 2.37125 5.91351563 2.5625 6.73828125 C3 9 3 9 3 12 C2.01 11.34 1.02 10.68 0 10 C-0.29296875 7.6171875 -0.29296875 7.6171875 -0.1875 4.875 C-0.16042969 3.96492187 -0.13335937 3.05484375 -0.10546875 2.1171875 C-0.07066406 1.41851562 -0.03585938 0.71984375 0 0 Z " fill="#4137FF" transform="translate(68,155)"/>
<path d="M0 0 C0.99 0.33 1.98 0.66 3 1 C3 2.98 3 4.96 3 7 C3.66 7.33 4.32 7.66 5 8 C3.68 8 2.36 8 1 8 C-0.35439668 5.29120665 -0.06501451 2.99066732 0 0 Z " fill="#655DFF" transform="translate(102,146)"/>
<path d="M0 0 C0.88336837 2.4667645 1.1312406 3.63859372 0.22265625 6.140625 C-0.16019531 6.83671875 -0.54304688 7.5328125 -0.9375 8.25 C-1.31777344 8.95640625 -1.69804688 9.6628125 -2.08984375 10.390625 C-2.39019531 10.92171875 -2.69054687 11.4528125 -3 12 C-3.88336837 9.5332355 -4.1312406 8.36140628 -3.22265625 5.859375 C-2.83980469 5.16328125 -2.45695312 4.4671875 -2.0625 3.75 C-1.68222656 3.04359375 -1.30195312 2.3371875 -0.91015625 1.609375 C-0.60980469 1.07828125 -0.30945313 0.5471875 0 0 Z " fill="#A39FFF" transform="translate(74,89)"/>
<path d="M0 0 C2.31 0.33 4.62 0.66 7 1 C7.33 1.99 7.66 2.98 8 4 C5.125 3.6875 5.125 3.6875 2 3 C1.34 2.01 0.68 1.02 0 0 Z " fill="#ABA7FF" transform="translate(136,71)"/>
<path d="M0 0 C2.0625 0.4375 2.0625 0.4375 4 1 C3.01 1.495 3.01 1.495 2 2 C2 2.99 2 3.98 2 5 C2.66 5.66 3.32 6.32 4 7 C2.68 7 1.36 7 0 7 C-0.38133299 5.0085944 -0.71325582 3.00720923 -1 1 C-0.67 0.67 -0.34 0.34 0 0 Z " fill="#3126FF" transform="translate(105,146)"/>
<path d="M0 0 C0.33 0 0.66 0 1 0 C1.36630156 3.93774177 1.30233203 5.56539771 -1 8.875 C-1.66 9.57625 -2.32 10.2775 -3 11 C-3 9.02 -3 7.04 -3 5 C-2.34 5 -1.68 5 -1 5 C-0.67 3.35 -0.34 1.7 0 0 Z " fill="#ECECFF" transform="translate(76,92)"/>
<path d="M0 0 C6.625 -0.125 6.625 -0.125 10 1 C10 1.66 10 2.32 10 3 C6.28111761 2.49287967 3.26545761 1.88391785 0 0 Z " fill="#EAE8FF" transform="translate(128,72)"/>
</svg>
